<?xml version="1.0" encoding="UTF-8" standalone="no"?>
<!DOCTYPE svg PUBLIC "-//W3C//DTD SVG 1.1//EN"
 "http://www.w3.org/Graphics/SVG/1.1/DTD/svg11.dtd">
<!-- Generated by graphviz version 2.47.1 (20210417.1919)
 -->
<!-- Title: simple Pages: 1 -->
<svg width="660pt" height="340pt"
 viewBox="0.00 0.00 659.62 340.48" xmlns="http://www.w3.org/2000/svg" xmlns:xlink="http://www.w3.org/1999/xlink">
<g id="graph0" class="graph" transform="scale(1 1) rotate(0) translate(4 336.48)">
<title>simple</title>
<polygon fill="white" stroke="transparent" points="-4,4 -4,-336.48 655.62,-336.48 655.62,4 -4,4"/>
<!-- id_333845158 -->
<g id="node1" class="node">
<title>id_333845158</title>
<ellipse fill="none" stroke="black" cx="362.62" cy="-314.48" rx="33.29" ry="18"/>
<text text-anchor="middle" x="362.62" y="-310.78" font-family="Times,serif" font-size="14.00">Out.ar</text>
</g>
<!-- id_57403546 -->
<g id="node2" class="node">
<title>id_57403546</title>
<ellipse fill="none" stroke="black" cx="289.62" cy="-218.61" rx="76.89" ry="18"/>
<text text-anchor="middle" x="289.62" y="-214.91" font-family="Times,serif" font-size="14.00">BinaryOpUGen.??</text>
</g>
<!-- id_333845158&#45;&gt;id_57403546 -->
<g id="edge14" class="edge">
<title>id_333845158&#45;&gt;id_57403546</title>
<path fill="none" stroke="black" d="M349.72,-297.51C344.95,-291.56 339.51,-284.73 334.62,-278.48 325.93,-267.37 316.42,-254.97 308.4,-244.43"/>
<polygon fill="black" stroke="black" points="311.16,-242.28 302.32,-236.43 305.59,-246.51 311.16,-242.28"/>
<text text-anchor="middle" x="374.12" y="-267.28" font-family="Times,serif" font-size="14.00">channelsArray</text>
</g>
<!-- id_274395547 -->
<g id="node13" class="node">
<title>id_274395547</title>
<ellipse fill="none" stroke="black" cx="435.62" cy="-218.61" rx="51.74" ry="26.74"/>
<text text-anchor="middle" x="435.62" y="-222.41" font-family="Times,serif" font-size="14.00">Control.kr</text>
<text text-anchor="middle" x="435.62" y="-207.41" font-family="Times,serif" font-size="14.00">out</text>
</g>
<!-- id_333845158&#45;&gt;id_274395547 -->
<g id="edge15" class="edge">
<title>id_333845158&#45;&gt;id_274395547</title>
<path fill="none" stroke="black" d="M386.1,-301.55C395.71,-295.7 406.28,-287.87 413.62,-278.48 419.03,-271.56 423.21,-263.17 426.4,-254.92"/>
<polygon fill="black" stroke="black" points="429.74,-255.99 429.71,-245.4 423.12,-253.7 429.74,-255.99"/>
<text text-anchor="middle" x="431.12" y="-267.28" font-family="Times,serif" font-size="14.00">bus</text>
</g>
<!-- id_720109805 -->
<g id="node3" class="node">
<title>id_720109805</title>
<ellipse fill="none" stroke="black" cx="193.62" cy="-122.74" rx="45.49" ry="18"/>
<text text-anchor="middle" x="193.62" y="-119.04" font-family="Times,serif" font-size="14.00">SinOsc.ar</text>
</g>
<!-- id_57403546&#45;&gt;id_720109805 -->
<g id="edge5" class="edge">
<title>id_57403546&#45;&gt;id_720109805</title>
<path fill="none" stroke="black" d="M272.46,-200.83C257.12,-185.83 234.49,-163.7 217.41,-147"/>
<polygon fill="black" stroke="black" points="219.59,-144.24 209.99,-139.75 214.7,-149.24 219.59,-144.24"/>
<text text-anchor="middle" x="248.12" y="-162.54" font-family="Times,serif" font-size="14.00">a</text>
</g>
<!-- * -->
<g id="node7" class="node">
<title>*</title>
<ellipse fill="none" stroke="black" cx="289.62" cy="-122.74" rx="27" ry="18"/>
<text text-anchor="middle" x="289.62" y="-119.04" font-family="Times,serif" font-size="14.00">*</text>
</g>
<!-- id_57403546&#45;&gt;* -->
<g id="edge6" class="edge">
<title>id_57403546&#45;&gt;*</title>
<path fill="none" stroke="black" d="M289.62,-200.39C289.62,-186.63 289.62,-167.08 289.62,-151.17"/>
<polygon fill="black" stroke="black" points="293.12,-150.85 289.62,-140.85 286.12,-150.85 293.12,-150.85"/>
<text text-anchor="middle" x="311.12" y="-162.54" font-family="Times,serif" font-size="14.00">selector</text>
</g>
<!-- id_753528268 -->
<g id="node8" class="node">
<title>id_753528268</title>
<ellipse fill="none" stroke="black" cx="376.62" cy="-122.74" rx="36.29" ry="18"/>
<text text-anchor="middle" x="376.62" y="-119.04" font-family="Times,serif" font-size="14.00">Line.kr</text>
</g>
<!-- id_57403546&#45;&gt;id_753528268 -->
<g id="edge13" class="edge">
<title>id_57403546&#45;&gt;id_753528268</title>
<path fill="none" stroke="black" d="M308.52,-201.12C317.34,-193.14 327.82,-183.24 336.62,-173.74 344.1,-165.67 351.78,-156.36 358.38,-147.98"/>
<polygon fill="black" stroke="black" points="361.21,-150.04 364.58,-139.99 355.68,-145.75 361.21,-150.04"/>
<text text-anchor="middle" x="353.12" y="-162.54" font-family="Times,serif" font-size="14.00">b</text>
</g>
<!-- id_761560962 -->
<g id="node4" class="node">
<title>id_761560962</title>
<ellipse fill="none" stroke="black" cx="51.62" cy="-26.87" rx="51.74" ry="26.74"/>
<text text-anchor="middle" x="51.62" y="-30.67" font-family="Times,serif" font-size="14.00">Control.kr</text>
<text text-anchor="middle" x="51.62" y="-15.67" font-family="Times,serif" font-size="14.00">freq=800</text>
</g>
<!-- id_720109805&#45;&gt;id_761560962 -->
<g id="edge1" class="edge">
<title>id_720109805&#45;&gt;id_761560962</title>
<path fill="none" stroke="black" d="M168.19,-107.62C157.39,-101.44 144.75,-93.96 133.62,-86.74 118.64,-77.03 102.6,-65.72 88.71,-55.63"/>
<polygon fill="black" stroke="black" points="90.51,-52.61 80.38,-49.53 86.38,-58.26 90.51,-52.61"/>
<text text-anchor="middle" x="144.62" y="-75.54" font-family="Times,serif" font-size="14.00">freq</text>
</g>
<!-- 0.2 -->
<g id="node5" class="node">
<title>0.2</title>
<ellipse fill="none" stroke="black" cx="148.62" cy="-26.87" rx="27" ry="18"/>
<text text-anchor="middle" x="148.62" y="-23.17" font-family="Times,serif" font-size="14.00">0.2</text>
</g>
<!-- id_720109805&#45;&gt;0.2 -->
<g id="edge2" class="edge">
<title>id_720109805&#45;&gt;0.2</title>
<path fill="none" stroke="black" d="M178.5,-105.59C173.85,-99.95 169.05,-93.37 165.62,-86.74 160.44,-76.75 156.64,-64.97 153.97,-54.58"/>
<polygon fill="black" stroke="black" points="157.35,-53.7 151.65,-44.77 150.54,-55.31 157.35,-53.7"/>
<text text-anchor="middle" x="176.62" y="-75.54" font-family="Times,serif" font-size="14.00">mul</text>
</g>
<!-- 0 -->
<g id="node6" class="node">
<title>0</title>
<ellipse fill="none" stroke="black" cx="236.62" cy="-26.87" rx="27" ry="18"/>
<text text-anchor="middle" x="236.62" y="-23.17" font-family="Times,serif" font-size="14.00">0</text>
</g>
<!-- id_720109805&#45;&gt;0 -->
<g id="edge3" class="edge">
<title>id_720109805&#45;&gt;0</title>
<path fill="none" stroke="black" d="M190.94,-104.44C190.13,-94.51 190.38,-82.01 194.62,-71.74 198.34,-62.72 204.86,-54.49 211.67,-47.66"/>
<polygon fill="black" stroke="black" points="214.1,-50.18 219.05,-40.82 209.34,-45.05 214.1,-50.18"/>
<text text-anchor="middle" x="204.62" y="-75.54" font-family="Times,serif" font-size="14.00">add</text>
</g>
<!-- id_720109805&#45;&gt;0 -->
<g id="edge4" class="edge">
<title>id_720109805&#45;&gt;0</title>
<path fill="none" stroke="black" d="M204.51,-105C207.97,-99.32 211.67,-92.87 214.62,-86.74 219.59,-76.42 224.19,-64.66 227.88,-54.38"/>
<polygon fill="black" stroke="black" points="231.26,-55.3 231.25,-44.7 224.65,-53 231.26,-55.3"/>
<text text-anchor="middle" x="237.12" y="-75.54" font-family="Times,serif" font-size="14.00">phase</text>
</g>
<!-- id_753528268&#45;&gt;0 -->
<g id="edge7" class="edge">
<title>id_753528268&#45;&gt;0</title>
<path fill="none" stroke="black" d="M347.9,-111.42C327.14,-103.68 301.14,-93.32 291.62,-86.74 277.5,-76.98 264.29,-63.05 254.35,-51.2"/>
<polygon fill="black" stroke="black" points="257.04,-48.96 248.02,-43.39 251.6,-53.37 257.04,-48.96"/>
<text text-anchor="middle" x="301.62" y="-75.54" font-family="Times,serif" font-size="14.00">end</text>
</g>
<!-- id_753528268&#45;&gt;0 -->
<g id="edge11" class="edge">
<title>id_753528268&#45;&gt;0</title>
<path fill="none" stroke="black" d="M357.31,-107.17C349.06,-100.92 339.34,-93.5 330.62,-86.74 322.12,-80.15 320.79,-77.37 311.62,-71.74 295.35,-61.76 289.11,-63.35 272.62,-53.74 269.13,-51.71 265.55,-49.42 262.08,-47.06"/>
<polygon fill="black" stroke="black" points="263.94,-44.09 253.75,-41.19 259.91,-49.82 263.94,-44.09"/>
<text text-anchor="middle" x="340.62" y="-75.54" font-family="Times,serif" font-size="14.00">add</text>
</g>
<!-- id_268683770 -->
<g id="node9" class="node">
<title>id_268683770</title>
<ellipse fill="none" stroke="black" cx="333.62" cy="-26.87" rx="51.74" ry="26.74"/>
<text text-anchor="middle" x="333.62" y="-30.67" font-family="Times,serif" font-size="14.00">Control.kr</text>
<text text-anchor="middle" x="333.62" y="-15.67" font-family="Times,serif" font-size="14.00">sustain=1</text>
</g>
<!-- id_753528268&#45;&gt;id_268683770 -->
<g id="edge8" class="edge">
<title>id_753528268&#45;&gt;id_268683770</title>
<path fill="none" stroke="black" d="M369.42,-105.01C365.18,-95.27 359.68,-82.77 354.62,-71.74 353.24,-68.75 351.8,-65.65 350.34,-62.54"/>
<polygon fill="black" stroke="black" points="353.42,-60.86 345.97,-53.32 347.09,-63.86 353.42,-60.86"/>
<text text-anchor="middle" x="371.12" y="-75.54" font-family="Times,serif" font-size="14.00">dur</text>
</g>
<!-- 2 -->
<g id="node10" class="node">
<title>2</title>
<ellipse fill="none" stroke="black" cx="430.62" cy="-26.87" rx="27" ry="18"/>
<text text-anchor="middle" x="430.62" y="-23.17" font-family="Times,serif" font-size="14.00">2</text>
</g>
<!-- id_753528268&#45;&gt;2 -->
<g id="edge9" class="edge">
<title>id_753528268&#45;&gt;2</title>
<path fill="none" stroke="black" d="M386.27,-104.96C394.59,-90.5 406.72,-69.42 416.19,-52.96"/>
<polygon fill="black" stroke="black" points="419.46,-54.29 421.41,-43.88 413.39,-50.8 419.46,-54.29"/>
<text text-anchor="middle" x="436.62" y="-75.54" font-family="Times,serif" font-size="14.00">doneAction</text>
</g>
<!-- id_32136032 -->
<g id="node11" class="node">
<title>id_32136032</title>
<ellipse fill="none" stroke="black" cx="527.62" cy="-26.87" rx="51.74" ry="26.74"/>
<text text-anchor="middle" x="527.62" y="-30.67" font-family="Times,serif" font-size="14.00">Control.kr</text>
<text text-anchor="middle" x="527.62" y="-15.67" font-family="Times,serif" font-size="14.00">amp=0.9</text>
</g>
<!-- id_753528268&#45;&gt;id_32136032 -->
<g id="edge10" class="edge">
<title>id_753528268&#45;&gt;id_32136032</title>
<path fill="none" stroke="black" d="M408.62,-114.15C428.18,-108.56 453.09,-99.66 472.62,-86.74 483.66,-79.43 494.06,-69.48 502.78,-59.83"/>
<polygon fill="black" stroke="black" points="505.48,-62.06 509.4,-52.22 500.2,-57.47 505.48,-62.06"/>
<text text-anchor="middle" x="501.62" y="-75.54" font-family="Times,serif" font-size="14.00">start</text>
</g>
<!-- 1 -->
<g id="node12" class="node">
<title>1</title>
<ellipse fill="none" stroke="black" cx="624.62" cy="-26.87" rx="27" ry="18"/>
<text text-anchor="middle" x="624.62" y="-23.17" font-family="Times,serif" font-size="14.00">1</text>
</g>
<!-- id_753528268&#45;&gt;1 -->
<g id="edge12" class="edge">
<title>id_753528268&#45;&gt;1</title>
<path fill="none" stroke="black" d="M409.91,-115.36C438.82,-109.38 481.58,-99.45 517.62,-86.74 550.43,-75.16 558.58,-71.3 588.62,-53.74 592.11,-51.7 595.68,-49.41 599.15,-47.06"/>
<polygon fill="black" stroke="black" points="601.33,-49.81 607.48,-41.18 597.29,-44.08 601.33,-49.81"/>
<text text-anchor="middle" x="565.62" y="-75.54" font-family="Times,serif" font-size="14.00">mul</text>
</g>
</g>
</svg>
