<?xml version="1.0" encoding="UTF-8" standalone="no"?>
<!DOCTYPE svg PUBLIC "-//W3C//DTD SVG 1.1//EN"
 "http://www.w3.org/Graphics/SVG/1.1/DTD/svg11.dtd">
<!-- Generated by graphviz version 2.44.1 (20200629.0846)
 -->
<!-- Title: g_34170778666 Pages: 1 -->
<svg width="939pt" height="795pt"
 viewBox="0.00 0.00 939.30 794.92" xmlns="http://www.w3.org/2000/svg" xmlns:xlink="http://www.w3.org/1999/xlink">
<g id="graph0" class="graph" transform="scale(1 1) rotate(0) translate(4 790.92)">
<title>g_34170778666</title>
<polygon fill="white" stroke="transparent" points="-4,4 -4,-790.92 935.3,-790.92 935.3,4 -4,4"/>
<!-- _654B9A7FE30 -->
<g id="node1" class="node">
<title>_654B9A7FE30</title>
<ellipse fill="none" stroke="black" cx="423" cy="-760.05" rx="43.68" ry="26.74"/>
<text text-anchor="middle" x="423" y="-763.85" font-family="Times,serif" font-size="14.00">Out ar</text>
<text text-anchor="middle" x="423" y="-748.85" font-family="Times,serif" font-size="14.00">A7FE30</text>
</g>
<!-- _125007EEB69D -->
<g id="node2" class="node">
<title>_125007EEB69D</title>
<ellipse fill="none" stroke="black" cx="340" cy="-655.31" rx="82.05" ry="26.74"/>
<text text-anchor="middle" x="340" y="-659.11" font-family="Times,serif" font-size="14.00">BinaryOpUGen ar</text>
<text text-anchor="middle" x="340" y="-644.11" font-family="Times,serif" font-size="14.00">EEB69D</text>
</g>
<!-- _654B9A7FE30&#45;&gt;_125007EEB69D -->
<g id="edge30" class="edge">
<title>_654B9A7FE30&#45;&gt;_125007EEB69D</title>
<path fill="none" stroke="black" d="M404.17,-735.74C393.19,-722.15 379.16,-704.79 367.02,-689.76"/>
<polygon fill="black" stroke="black" points="369.51,-687.27 360.5,-681.69 364.07,-691.67 369.51,-687.27"/>
<text text-anchor="middle" x="426.5" y="-703.98" font-family="Times,serif" font-size="14.00">channelsArray</text>
</g>
<!-- _2FE8B17B99A0 -->
<g id="node22" class="node">
<title>_2FE8B17B99A0</title>
<ellipse fill="none" stroke="black" cx="506" cy="-655.31" rx="66.44" ry="26.74"/>
<text text-anchor="middle" x="506" y="-659.11" font-family="Times,serif" font-size="14.00">Control kr out</text>
<text text-anchor="middle" x="506" y="-644.11" font-family="Times,serif" font-size="14.00">7B99A0</text>
</g>
<!-- _654B9A7FE30&#45;&gt;_2FE8B17B99A0 -->
<g id="edge31" class="edge">
<title>_654B9A7FE30&#45;&gt;_2FE8B17B99A0</title>
<path fill="none" stroke="black" d="M448.16,-737.9C455.61,-731.04 463.51,-723.14 470,-715.18 476.24,-707.53 482.19,-698.71 487.39,-690.26"/>
<polygon fill="black" stroke="black" points="490.41,-692.04 492.53,-681.66 484.4,-688.45 490.41,-692.04"/>
<text text-anchor="middle" x="489.5" y="-703.98" font-family="Times,serif" font-size="14.00">bus</text>
</g>
<!-- _1327EEAAA021 -->
<g id="node3" class="node">
<title>_1327EEAAA021</title>
<ellipse fill="none" stroke="black" cx="151" cy="-550.57" rx="49.49" ry="26.74"/>
<text text-anchor="middle" x="151" y="-554.37" font-family="Times,serif" font-size="14.00">SinOsc ar</text>
<text text-anchor="middle" x="151" y="-539.37" font-family="Times,serif" font-size="14.00">AAA021</text>
</g>
<!-- _125007EEB69D&#45;&gt;_1327EEAAA021 -->
<g id="edge19" class="edge">
<title>_125007EEB69D&#45;&gt;_1327EEAAA021</title>
<path fill="none" stroke="black" d="M298.99,-632.02C268.06,-615.2 225.73,-592.2 194.27,-575.09"/>
<polygon fill="black" stroke="black" points="195.75,-571.91 185.29,-570.21 192.4,-578.06 195.75,-571.91"/>
<text text-anchor="middle" x="260.5" y="-599.24" font-family="Times,serif" font-size="14.00">a</text>
</g>
<!-- _42F832032ACE -->
<g id="node6" class="node">
<title>_42F832032ACE</title>
<ellipse fill="none" stroke="black" cx="530" cy="-341.09" rx="62.87" ry="26.74"/>
<text text-anchor="middle" x="530" y="-344.89" font-family="Times,serif" font-size="14.00">Constant ir +</text>
<text text-anchor="middle" x="530" y="-329.89" font-family="Times,serif" font-size="14.00">032ACE</text>
</g>
<!-- _125007EEB69D&#45;&gt;_42F832032ACE -->
<g id="edge29" class="edge">
<title>_125007EEB69D&#45;&gt;_42F832032ACE</title>
<path fill="none" stroke="black" d="M366.23,-629.52C380.54,-615.16 397.94,-596.24 411,-577.44 456.96,-511.26 495.96,-424.85 515.86,-377.3"/>
<polygon fill="black" stroke="black" points="519.22,-378.34 519.81,-367.76 512.75,-375.66 519.22,-378.34"/>
<text text-anchor="middle" x="483.5" y="-494.5" font-family="Times,serif" font-size="14.00">selector</text>
</g>
<!-- _356A4F6CC6D -->
<g id="node17" class="node">
<title>_356A4F6CC6D</title>
<ellipse fill="none" stroke="black" cx="340" cy="-550.57" rx="61.54" ry="26.74"/>
<text text-anchor="middle" x="340" y="-554.37" font-family="Times,serif" font-size="14.00">PinkNoise ar</text>
<text text-anchor="middle" x="340" y="-539.37" font-family="Times,serif" font-size="14.00">F6CC6D</text>
</g>
<!-- _125007EEB69D&#45;&gt;_356A4F6CC6D -->
<g id="edge28" class="edge">
<title>_125007EEB69D&#45;&gt;_356A4F6CC6D</title>
<path fill="none" stroke="black" d="M340,-628.39C340,-616.1 340,-601.21 340,-587.82"/>
<polygon fill="black" stroke="black" points="343.5,-587.49 340,-577.49 336.5,-587.49 343.5,-587.49"/>
<text text-anchor="middle" x="343.5" y="-599.24" font-family="Times,serif" font-size="14.00">b</text>
</g>
<!-- _17B5399D2AA9 -->
<g id="node4" class="node">
<title>_17B5399D2AA9</title>
<ellipse fill="none" stroke="black" cx="362" cy="-445.83" rx="82.05" ry="26.74"/>
<text text-anchor="middle" x="362" y="-449.63" font-family="Times,serif" font-size="14.00">BinaryOpUGen ar</text>
<text text-anchor="middle" x="362" y="-434.63" font-family="Times,serif" font-size="14.00">9D2AA9</text>
</g>
<!-- _1327EEAAA021&#45;&gt;_17B5399D2AA9 -->
<g id="edge15" class="edge">
<title>_1327EEAAA021&#45;&gt;_17B5399D2AA9</title>
<path fill="none" stroke="black" d="M187.27,-531.91C220.51,-515.72 270.16,-491.55 308.05,-473.1"/>
<polygon fill="black" stroke="black" points="309.96,-476.06 317.42,-468.54 306.89,-469.77 309.96,-476.06"/>
<text text-anchor="middle" x="281" y="-494.5" font-family="Times,serif" font-size="14.00">freq</text>
</g>
<!-- _2E4F6AE9B80F -->
<g id="node11" class="node">
<title>_2E4F6AE9B80F</title>
<ellipse fill="none" stroke="black" cx="141" cy="-26.87" rx="61.54" ry="26.74"/>
<text text-anchor="middle" x="141" y="-30.67" font-family="Times,serif" font-size="14.00">Constant ir 0</text>
<text text-anchor="middle" x="141" y="-15.67" font-family="Times,serif" font-size="14.00">E9B80F</text>
</g>
<!-- _1327EEAAA021&#45;&gt;_2E4F6AE9B80F -->
<g id="edge16" class="edge">
<title>_1327EEAAA021&#45;&gt;_2E4F6AE9B80F</title>
<path fill="none" stroke="black" d="M105.7,-539.21C61.22,-526.03 0,-498.51 0,-446.83 0,-446.83 0,-446.83 0,-130.61 0,-88.17 42.24,-61.41 80.49,-45.88"/>
<polygon fill="black" stroke="black" points="82.03,-49.03 90.1,-42.17 79.51,-42.5 82.03,-49.03"/>
<text text-anchor="middle" x="15.5" y="-285.02" font-family="Times,serif" font-size="14.00">phase</text>
</g>
<!-- _1327EEAAA021&#45;&gt;_2E4F6AE9B80F -->
<g id="edge17" class="edge">
<title>_1327EEAAA021&#45;&gt;_2E4F6AE9B80F</title>
<path fill="none" stroke="black" d="M116.53,-531.29C88.65,-513.73 54,-484.36 54,-446.83 54,-446.83 54,-446.83 54,-130.61 54,-100.22 76.45,-74.19 98.54,-55.94"/>
<polygon fill="black" stroke="black" points="100.93,-58.51 106.62,-49.57 96.59,-53.01 100.93,-58.51"/>
<text text-anchor="middle" x="64" y="-285.02" font-family="Times,serif" font-size="14.00">add</text>
</g>
<!-- _3B83FD552B82 -->
<g id="node16" class="node">
<title>_3B83FD552B82</title>
<ellipse fill="none" stroke="black" cx="151" cy="-445.83" rx="69.09" ry="26.74"/>
<text text-anchor="middle" x="151" y="-449.63" font-family="Times,serif" font-size="14.00">Constant ir 0.1</text>
<text text-anchor="middle" x="151" y="-434.63" font-family="Times,serif" font-size="14.00">552B82</text>
</g>
<!-- _1327EEAAA021&#45;&gt;_3B83FD552B82 -->
<g id="edge18" class="edge">
<title>_1327EEAAA021&#45;&gt;_3B83FD552B82</title>
<path fill="none" stroke="black" d="M151,-523.64C151,-511.36 151,-496.47 151,-483.08"/>
<polygon fill="black" stroke="black" points="154.5,-482.75 151,-472.75 147.5,-482.75 154.5,-482.75"/>
<text text-anchor="middle" x="162" y="-494.5" font-family="Times,serif" font-size="14.00">mul</text>
</g>
<!-- _3F3D9C8A1381 -->
<g id="node5" class="node">
<title>_3F3D9C8A1381</title>
<ellipse fill="none" stroke="black" cx="196" cy="-341.09" rx="71.34" ry="26.74"/>
<text text-anchor="middle" x="196" y="-344.89" font-family="Times,serif" font-size="14.00">Constant ir 800</text>
<text text-anchor="middle" x="196" y="-329.89" font-family="Times,serif" font-size="14.00">8A1381</text>
</g>
<!-- _17B5399D2AA9&#45;&gt;_3F3D9C8A1381 -->
<g id="edge1" class="edge">
<title>_17B5399D2AA9&#45;&gt;_3F3D9C8A1381</title>
<path fill="none" stroke="black" d="M324.75,-421.77C299.84,-406.36 266.94,-386 240.64,-369.72"/>
<polygon fill="black" stroke="black" points="242.33,-366.65 231.99,-364.36 238.65,-372.6 242.33,-366.65"/>
<text text-anchor="middle" x="292.5" y="-389.76" font-family="Times,serif" font-size="14.00">b</text>
</g>
<!-- _17B5399D2AA9&#45;&gt;_42F832032ACE -->
<g id="edge2" class="edge">
<title>_17B5399D2AA9&#45;&gt;_42F832032ACE</title>
<path fill="none" stroke="black" d="M383.51,-419.6C394.2,-408.21 407.85,-395.25 422,-385.96 431.28,-379.87 452.46,-370.93 473.62,-362.72"/>
<polygon fill="black" stroke="black" points="474.9,-365.98 482.98,-359.13 472.39,-359.44 474.9,-365.98"/>
<text text-anchor="middle" x="443.5" y="-389.76" font-family="Times,serif" font-size="14.00">selector</text>
</g>
<!-- _41B8AD86A6A2 -->
<g id="node7" class="node">
<title>_41B8AD86A6A2</title>
<ellipse fill="none" stroke="black" cx="367" cy="-341.09" rx="82.05" ry="26.74"/>
<text text-anchor="middle" x="367" y="-344.89" font-family="Times,serif" font-size="14.00">BinaryOpUGen ar</text>
<text text-anchor="middle" x="367" y="-329.89" font-family="Times,serif" font-size="14.00">86A6A2</text>
</g>
<!-- _17B5399D2AA9&#45;&gt;_41B8AD86A6A2 -->
<g id="edge14" class="edge">
<title>_17B5399D2AA9&#45;&gt;_41B8AD86A6A2</title>
<path fill="none" stroke="black" d="M363.26,-418.9C363.86,-406.62 364.58,-391.73 365.24,-378.34"/>
<polygon fill="black" stroke="black" points="368.75,-378.17 365.74,-368.01 361.76,-377.83 368.75,-378.17"/>
<text text-anchor="middle" x="368.5" y="-389.76" font-family="Times,serif" font-size="14.00">a</text>
</g>
<!-- _2D3110FB158E -->
<g id="node8" class="node">
<title>_2D3110FB158E</title>
<ellipse fill="none" stroke="black" cx="358" cy="-236.35" rx="61.54" ry="26.74"/>
<text text-anchor="middle" x="358" y="-240.15" font-family="Times,serif" font-size="14.00">Constant ir *</text>
<text text-anchor="middle" x="358" y="-225.15" font-family="Times,serif" font-size="14.00">FB158E</text>
</g>
<!-- _41B8AD86A6A2&#45;&gt;_2D3110FB158E -->
<g id="edge3" class="edge">
<title>_41B8AD86A6A2&#45;&gt;_2D3110FB158E</title>
<path fill="none" stroke="black" d="M360.11,-314.27C358.81,-308.38 357.66,-302.12 357,-296.22 356.17,-288.82 355.89,-280.86 355.92,-273.26"/>
<polygon fill="black" stroke="black" points="359.42,-273.28 356.12,-263.21 352.42,-273.14 359.42,-273.28"/>
<text text-anchor="middle" x="378.5" y="-285.02" font-family="Times,serif" font-size="14.00">selector</text>
</g>
<!-- _30B56C53FA3 -->
<g id="node9" class="node">
<title>_30B56C53FA3</title>
<ellipse fill="none" stroke="black" cx="207" cy="-236.35" rx="71.34" ry="26.74"/>
<text text-anchor="middle" x="207" y="-240.15" font-family="Times,serif" font-size="14.00">Constant ir 300</text>
<text text-anchor="middle" x="207" y="-225.15" font-family="Times,serif" font-size="14.00">C53FA3</text>
</g>
<!-- _41B8AD86A6A2&#45;&gt;_30B56C53FA3 -->
<g id="edge4" class="edge">
<title>_41B8AD86A6A2&#45;&gt;_30B56C53FA3</title>
<path fill="none" stroke="black" d="M330.69,-316.78C306.94,-301.52 275.77,-281.51 250.67,-265.39"/>
<polygon fill="black" stroke="black" points="252.37,-262.32 242.06,-259.87 248.59,-268.21 252.37,-262.32"/>
<text text-anchor="middle" x="300.5" y="-285.02" font-family="Times,serif" font-size="14.00">a</text>
</g>
<!-- _482AAE789852 -->
<g id="node10" class="node">
<title>_482AAE789852</title>
<ellipse fill="none" stroke="black" cx="487" cy="-236.35" rx="49.49" ry="26.74"/>
<text text-anchor="middle" x="487" y="-240.15" font-family="Times,serif" font-size="14.00">SinOsc ar</text>
<text text-anchor="middle" x="487" y="-225.15" font-family="Times,serif" font-size="14.00">789852</text>
</g>
<!-- _41B8AD86A6A2&#45;&gt;_482AAE789852 -->
<g id="edge13" class="edge">
<title>_41B8AD86A6A2&#45;&gt;_482AAE789852</title>
<path fill="none" stroke="black" d="M426.99,-322.73C441.25,-316.29 455.39,-307.66 466,-296.22 472.05,-289.7 476.38,-281.33 479.47,-272.95"/>
<polygon fill="black" stroke="black" points="482.86,-273.82 482.55,-263.23 476.19,-271.7 482.86,-273.82"/>
<text text-anchor="middle" x="478.5" y="-285.02" font-family="Times,serif" font-size="14.00">b</text>
</g>
<!-- _482AAE789852&#45;&gt;_2E4F6AE9B80F -->
<g id="edge5" class="edge">
<title>_482AAE789852&#45;&gt;_2E4F6AE9B80F</title>
<path fill="none" stroke="black" d="M451.45,-217.37C444.17,-214.3 436.46,-211.47 429,-209.48 352.16,-189.03 321.38,-228.48 251,-191.48 200.17,-164.76 168.72,-102.79 153.08,-63.25"/>
<polygon fill="black" stroke="black" points="156.27,-61.81 149.44,-53.71 149.73,-64.3 156.27,-61.81"/>
<text text-anchor="middle" x="218" y="-127.91" font-family="Times,serif" font-size="14.00">add</text>
</g>
<!-- _482AAE789852&#45;&gt;_2E4F6AE9B80F -->
<g id="edge6" class="edge">
<title>_482AAE789852&#45;&gt;_2E4F6AE9B80F</title>
<path fill="none" stroke="black" d="M450.85,-217.89C420.53,-202.94 376.32,-180.4 339,-158.48 282.88,-125.52 220.59,-83.47 181.13,-56.12"/>
<polygon fill="black" stroke="black" points="182.79,-53.02 172.59,-50.18 178.8,-58.76 182.79,-53.02"/>
<text text-anchor="middle" x="354.5" y="-127.91" font-family="Times,serif" font-size="14.00">phase</text>
</g>
<!-- _552796CC6DFA -->
<g id="node12" class="node">
<title>_552796CC6DFA</title>
<ellipse fill="none" stroke="black" cx="487" cy="-131.61" rx="55.72" ry="26.74"/>
<text text-anchor="middle" x="487" y="-135.41" font-family="Times,serif" font-size="14.00">MouseX kr</text>
<text text-anchor="middle" x="487" y="-120.41" font-family="Times,serif" font-size="14.00">CC6DFA</text>
</g>
<!-- _482AAE789852&#45;&gt;_552796CC6DFA -->
<g id="edge11" class="edge">
<title>_482AAE789852&#45;&gt;_552796CC6DFA</title>
<path fill="none" stroke="black" d="M487,-209.42C487,-197.14 487,-182.25 487,-168.86"/>
<polygon fill="black" stroke="black" points="490.5,-168.53 487,-158.53 483.5,-168.53 490.5,-168.53"/>
<text text-anchor="middle" x="498" y="-180.28" font-family="Times,serif" font-size="14.00">freq</text>
</g>
<!-- _382B107EB4AF -->
<g id="node15" class="node">
<title>_382B107EB4AF</title>
<ellipse fill="none" stroke="black" cx="351" cy="-26.87" rx="61.54" ry="26.74"/>
<text text-anchor="middle" x="351" y="-30.67" font-family="Times,serif" font-size="14.00">Constant ir 1</text>
<text text-anchor="middle" x="351" y="-15.67" font-family="Times,serif" font-size="14.00">7EB4AF</text>
</g>
<!-- _482AAE789852&#45;&gt;_382B107EB4AF -->
<g id="edge12" class="edge">
<title>_482AAE789852&#45;&gt;_382B107EB4AF</title>
<path fill="none" stroke="black" d="M456.99,-214.77C438.44,-200.74 415.32,-180.72 400,-158.48 380.03,-129.47 366.93,-91.28 359.35,-63.69"/>
<polygon fill="black" stroke="black" points="362.64,-62.45 356.71,-53.68 355.87,-64.24 362.64,-62.45"/>
<text text-anchor="middle" x="411" y="-127.91" font-family="Times,serif" font-size="14.00">mul</text>
</g>
<!-- _552796CC6DFA&#45;&gt;_2E4F6AE9B80F -->
<g id="edge10" class="edge">
<title>_552796CC6DFA&#45;&gt;_2E4F6AE9B80F</title>
<path fill="none" stroke="black" d="M440.34,-116.75C378.27,-98.33 268.52,-65.73 200.55,-45.55"/>
<polygon fill="black" stroke="black" points="201.42,-42.16 190.84,-42.67 199.43,-48.87 201.42,-42.16"/>
<text text-anchor="middle" x="349" y="-75.54" font-family="Times,serif" font-size="14.00">warp</text>
</g>
<!-- _2FE3CAFF4BE8 -->
<g id="node13" class="node">
<title>_2FE3CAFF4BE8</title>
<ellipse fill="none" stroke="black" cx="659" cy="-26.87" rx="71.34" ry="26.74"/>
<text text-anchor="middle" x="659" y="-30.67" font-family="Times,serif" font-size="14.00">Constant ir 100</text>
<text text-anchor="middle" x="659" y="-15.67" font-family="Times,serif" font-size="14.00">FF4BE8</text>
</g>
<!-- _552796CC6DFA&#45;&gt;_2FE3CAFF4BE8 -->
<g id="edge7" class="edge">
<title>_552796CC6DFA&#45;&gt;_2FE3CAFF4BE8</title>
<path fill="none" stroke="black" d="M521.39,-110.07C547.78,-94.3 584.45,-72.4 613.3,-55.17"/>
<polygon fill="black" stroke="black" points="615.2,-58.11 621.99,-49.98 611.61,-52.1 615.2,-58.11"/>
<text text-anchor="middle" x="603.5" y="-75.54" font-family="Times,serif" font-size="14.00">maxval</text>
</g>
<!-- _54C2C41F7FCB -->
<g id="node14" class="node">
<title>_54C2C41F7FCB</title>
<ellipse fill="none" stroke="black" cx="500" cy="-26.87" rx="69.09" ry="26.74"/>
<text text-anchor="middle" x="500" y="-30.67" font-family="Times,serif" font-size="14.00">Constant ir 0.2</text>
<text text-anchor="middle" x="500" y="-15.67" font-family="Times,serif" font-size="14.00">1F7FCB</text>
</g>
<!-- _552796CC6DFA&#45;&gt;_54C2C41F7FCB -->
<g id="edge8" class="edge">
<title>_552796CC6DFA&#45;&gt;_54C2C41F7FCB</title>
<path fill="none" stroke="black" d="M490.28,-104.68C491.85,-92.27 493.76,-77.21 495.46,-63.72"/>
<polygon fill="black" stroke="black" points="498.94,-64.15 496.72,-53.79 491.99,-63.27 498.94,-64.15"/>
<text text-anchor="middle" x="502.5" y="-75.54" font-family="Times,serif" font-size="14.00">lag</text>
</g>
<!-- _552796CC6DFA&#45;&gt;_382B107EB4AF -->
<g id="edge9" class="edge">
<title>_552796CC6DFA&#45;&gt;_382B107EB4AF</title>
<path fill="none" stroke="black" d="M457.82,-108.57C437.75,-93.41 410.9,-73.12 389.13,-56.68"/>
<polygon fill="black" stroke="black" points="391.16,-53.82 381.07,-50.58 386.94,-59.41 391.16,-53.82"/>
<text text-anchor="middle" x="447.5" y="-75.54" font-family="Times,serif" font-size="14.00">minval</text>
</g>
<!-- _356A4F6CC6D&#45;&gt;_2E4F6AE9B80F -->
<g id="edge20" class="edge">
<title>_356A4F6CC6D&#45;&gt;_2E4F6AE9B80F</title>
<path fill="none" stroke="black" d="M296.06,-531.74C283.75,-525.05 271.23,-516.41 262,-505.7 235.08,-474.45 257.27,-448.99 229,-418.96 191.23,-378.84 151.18,-410.37 116,-367.96 93.15,-340.42 97,-325.5 97,-289.72 97,-289.72 97,-289.72 97,-130.61 97,-106.15 107.67,-80.88 118.49,-61.51"/>
<polygon fill="black" stroke="black" points="121.57,-63.18 123.61,-52.78 115.53,-59.64 121.57,-63.18"/>
<text text-anchor="middle" x="107" y="-285.02" font-family="Times,serif" font-size="14.00">add</text>
</g>
<!-- _2DC6C3C0FAF -->
<g id="node18" class="node">
<title>_2DC6C3C0FAF</title>
<ellipse fill="none" stroke="black" cx="592" cy="-445.83" rx="82.05" ry="26.74"/>
<text text-anchor="middle" x="592" y="-449.63" font-family="Times,serif" font-size="14.00">BinaryOpUGen ar</text>
<text text-anchor="middle" x="592" y="-434.63" font-family="Times,serif" font-size="14.00">3C0FAF</text>
</g>
<!-- _356A4F6CC6D&#45;&gt;_2DC6C3C0FAF -->
<g id="edge27" class="edge">
<title>_356A4F6CC6D&#45;&gt;_2DC6C3C0FAF</title>
<path fill="none" stroke="black" d="M399.6,-543.16C437.45,-537.29 486.57,-526.23 526,-505.7 539.15,-498.85 551.77,-488.8 562.39,-478.92"/>
<polygon fill="black" stroke="black" points="564.99,-481.28 569.75,-471.82 560.12,-476.25 564.99,-481.28"/>
<text text-anchor="middle" x="559" y="-494.5" font-family="Times,serif" font-size="14.00">mul</text>
</g>
<!-- _2DC6C3C0FAF&#45;&gt;_42F832032ACE -->
<g id="edge26" class="edge">
<title>_2DC6C3C0FAF&#45;&gt;_42F832032ACE</title>
<path fill="none" stroke="black" d="M576.51,-419.17C568.69,-406.2 559.08,-390.29 550.64,-376.29"/>
<polygon fill="black" stroke="black" points="553.45,-374.18 545.29,-367.42 547.46,-377.79 553.45,-374.18"/>
<text text-anchor="middle" x="585.5" y="-389.76" font-family="Times,serif" font-size="14.00">selector</text>
</g>
<!-- _E6040EB6891 -->
<g id="node19" class="node">
<title>_E6040EB6891</title>
<ellipse fill="none" stroke="black" cx="693" cy="-341.09" rx="82.05" ry="26.74"/>
<text text-anchor="middle" x="693" y="-344.89" font-family="Times,serif" font-size="14.00">BinaryOpUGen ar</text>
<text text-anchor="middle" x="693" y="-329.89" font-family="Times,serif" font-size="14.00">EB6891</text>
</g>
<!-- _2DC6C3C0FAF&#45;&gt;_E6040EB6891 -->
<g id="edge24" class="edge">
<title>_2DC6C3C0FAF&#45;&gt;_E6040EB6891</title>
<path fill="none" stroke="black" d="M616.45,-419.96C629.87,-406.31 646.68,-389.21 661.12,-374.52"/>
<polygon fill="black" stroke="black" points="663.91,-376.67 668.43,-367.09 658.92,-371.77 663.91,-376.67"/>
<text text-anchor="middle" x="651.5" y="-389.76" font-family="Times,serif" font-size="14.00">a</text>
</g>
<!-- _3845C9110160 -->
<g id="node21" class="node">
<title>_3845C9110160</title>
<ellipse fill="none" stroke="black" cx="862" cy="-341.09" rx="69.09" ry="26.74"/>
<text text-anchor="middle" x="862" y="-344.89" font-family="Times,serif" font-size="14.00">Constant ir 0.1</text>
<text text-anchor="middle" x="862" y="-329.89" font-family="Times,serif" font-size="14.00">110160</text>
</g>
<!-- _2DC6C3C0FAF&#45;&gt;_3845C9110160 -->
<g id="edge25" class="edge">
<title>_2DC6C3C0FAF&#45;&gt;_3845C9110160</title>
<path fill="none" stroke="black" d="M644.06,-425.02C689.93,-407.56 756.67,-382.17 804.19,-364.09"/>
<polygon fill="black" stroke="black" points="805.63,-367.29 813.73,-360.46 803.14,-360.74 805.63,-367.29"/>
<text text-anchor="middle" x="746.5" y="-389.76" font-family="Times,serif" font-size="14.00">b</text>
</g>
<!-- _E6040EB6891&#45;&gt;_2D3110FB158E -->
<g id="edge21" class="edge">
<title>_E6040EB6891&#45;&gt;_2D3110FB158E</title>
<path fill="none" stroke="black" d="M635.12,-321.96C624.2,-319.02 612.81,-316.27 602,-314.22 521.71,-298.99 493.19,-330.5 419,-296.22 415.05,-294.4 401.76,-281.72 388.59,-268.6"/>
<polygon fill="black" stroke="black" points="390.88,-265.94 381.34,-261.33 385.92,-270.88 390.88,-265.94"/>
<text text-anchor="middle" x="440.5" y="-285.02" font-family="Times,serif" font-size="14.00">selector</text>
</g>
<!-- _E6040EB6891&#45;&gt;_482AAE789852 -->
<g id="edge22" class="edge">
<title>_E6040EB6891&#45;&gt;_482AAE789852</title>
<path fill="none" stroke="black" d="M649.31,-318.3C614.73,-301.05 566.61,-277.05 531.75,-259.67"/>
<polygon fill="black" stroke="black" points="533.25,-256.51 522.74,-255.18 530.13,-262.77 533.25,-256.51"/>
<text text-anchor="middle" x="605.5" y="-285.02" font-family="Times,serif" font-size="14.00">b</text>
</g>
<!-- _2B2C877744DE -->
<g id="node20" class="node">
<title>_2B2C877744DE</title>
<ellipse fill="none" stroke="black" cx="693" cy="-236.35" rx="69.09" ry="26.74"/>
<text text-anchor="middle" x="693" y="-240.15" font-family="Times,serif" font-size="14.00">Constant ir 0.1</text>
<text text-anchor="middle" x="693" y="-225.15" font-family="Times,serif" font-size="14.00">7744DE</text>
</g>
<!-- _E6040EB6891&#45;&gt;_2B2C877744DE -->
<g id="edge23" class="edge">
<title>_E6040EB6891&#45;&gt;_2B2C877744DE</title>
<path fill="none" stroke="black" d="M693,-314.16C693,-301.88 693,-286.99 693,-273.6"/>
<polygon fill="black" stroke="black" points="696.5,-273.27 693,-263.27 689.5,-273.27 696.5,-273.27"/>
<text text-anchor="middle" x="696.5" y="-285.02" font-family="Times,serif" font-size="14.00">a</text>
</g>
</g>
</svg>
