<?xml version="1.0" encoding="UTF-8" standalone="no"?>
<!DOCTYPE svg PUBLIC "-//W3C//DTD SVG 1.1//EN"
 "http://www.w3.org/Graphics/SVG/1.1/DTD/svg11.dtd">
<!-- Generated by graphviz version 2.47.1 (20210417.1919)
 -->
<!-- Title: g_45792816504 Pages: 1 -->
<svg width="936pt" height="653pt"
 viewBox="0.00 0.00 936.44 653.00" xmlns="http://www.w3.org/2000/svg" xmlns:xlink="http://www.w3.org/1999/xlink">
<g id="graph0" class="graph" transform="scale(1 1) rotate(0) translate(4 649)">
<title>g_45792816504</title>
<polygon fill="white" stroke="transparent" points="-4,4 -4,-649 932.44,-649 932.44,4 -4,4"/>
<!-- _1490BD65FBEA -->
<g id="node1" class="node">
<title>_1490BD65FBEA</title>
<ellipse fill="none" stroke="black" cx="789.69" cy="-627" rx="33.29" ry="18"/>
<text text-anchor="middle" x="789.69" y="-623.3" font-family="Times,serif" font-size="14.00">Out ar</text>
</g>
<!-- _4923C1118BD0 -->
<g id="node2" class="node">
<title>_4923C1118BD0</title>
<ellipse fill="none" stroke="black" cx="711.69" cy="-540" rx="75.29" ry="18"/>
<text text-anchor="middle" x="711.69" y="-536.3" font-family="Times,serif" font-size="14.00">BinaryOpUGen ar</text>
</g>
<!-- _1490BD65FBEA&#45;&gt;_4923C1118BD0 -->
<g id="edge30" class="edge">
<title>_1490BD65FBEA&#45;&gt;_4923C1118BD0</title>
<path fill="none" stroke="black" d="M767.07,-613.73C757.5,-607.76 746.74,-599.94 738.69,-591 732.44,-584.04 727.11,-575.37 722.88,-567.22"/>
<polygon fill="black" stroke="black" points="725.94,-565.49 718.43,-558.01 719.63,-568.54 725.94,-565.49"/>
<text text-anchor="middle" x="778.19" y="-579.8" font-family="Times,serif" font-size="14.00">channelsArray</text>
</g>
<!-- _1B8D17996BC0 -->
<g id="node31" class="node">
<title>_1B8D17996BC0</title>
<ellipse fill="none" stroke="black" cx="866.69" cy="-540" rx="61.99" ry="18"/>
<text text-anchor="middle" x="866.69" y="-536.3" font-family="Times,serif" font-size="14.00">Control kr bus</text>
</g>
<!-- _1490BD65FBEA&#45;&gt;_1B8D17996BC0 -->
<g id="edge31" class="edge">
<title>_1490BD65FBEA&#45;&gt;_1B8D17996BC0</title>
<path fill="none" stroke="black" d="M803.74,-610.69C809.34,-604.58 815.83,-597.46 821.69,-591 829.31,-582.61 837.61,-573.4 844.99,-565.19"/>
<polygon fill="black" stroke="black" points="847.65,-567.47 851.73,-557.7 842.44,-562.79 847.65,-567.47"/>
<text text-anchor="middle" x="843.19" y="-579.8" font-family="Times,serif" font-size="14.00">bus</text>
</g>
<!-- _13678F034D0E -->
<g id="node3" class="node">
<title>_13678F034D0E</title>
<ellipse fill="none" stroke="black" cx="430.69" cy="-453" rx="45.49" ry="18"/>
<text text-anchor="middle" x="430.69" y="-449.3" font-family="Times,serif" font-size="14.00">SinOsc ar</text>
</g>
<!-- _4923C1118BD0&#45;&gt;_13678F034D0E -->
<g id="edge19" class="edge">
<title>_4923C1118BD0&#45;&gt;_13678F034D0E</title>
<path fill="none" stroke="black" d="M666.86,-525.44C614.31,-509.54 527.76,-483.36 475.3,-467.49"/>
<polygon fill="black" stroke="black" points="476.19,-464.11 465.61,-464.56 474.16,-470.81 476.19,-464.11"/>
<text text-anchor="middle" x="592.19" y="-492.8" font-family="Times,serif" font-size="14.00">a</text>
</g>
<!-- _3F4255F94896 -->
<g id="node22" class="node">
<title>_3F4255F94896</title>
<ellipse fill="none" stroke="black" cx="711.69" cy="-453" rx="56.59" ry="18"/>
<text text-anchor="middle" x="711.69" y="-449.3" font-family="Times,serif" font-size="14.00">PinkNoise ar</text>
</g>
<!-- _4923C1118BD0&#45;&gt;_3F4255F94896 -->
<g id="edge28" class="edge">
<title>_4923C1118BD0&#45;&gt;_3F4255F94896</title>
<path fill="none" stroke="black" d="M711.69,-521.8C711.69,-510.16 711.69,-494.55 711.69,-481.24"/>
<polygon fill="black" stroke="black" points="715.19,-481.18 711.69,-471.18 708.19,-481.18 715.19,-481.18"/>
<text text-anchor="middle" x="715.19" y="-492.8" font-family="Times,serif" font-size="14.00">b</text>
</g>
<!-- _3B7FC35B2170 -->
<g id="node30" class="node">
<title>_3B7FC35B2170</title>
<ellipse fill="none" stroke="black" cx="843.69" cy="-453" rx="57.69" ry="18"/>
<text text-anchor="middle" x="843.69" y="-449.3" font-family="Times,serif" font-size="14.00">Constant ir +</text>
</g>
<!-- _4923C1118BD0&#45;&gt;_3B7FC35B2170 -->
<g id="edge29" class="edge">
<title>_4923C1118BD0&#45;&gt;_3B7FC35B2170</title>
<path fill="none" stroke="black" d="M736.83,-522.81C757.83,-509.29 787.93,-489.91 810.84,-475.16"/>
<polygon fill="black" stroke="black" points="813.03,-477.91 819.54,-469.55 809.24,-472.03 813.03,-477.91"/>
<text text-anchor="middle" x="807.19" y="-492.8" font-family="Times,serif" font-size="14.00">selector</text>
</g>
<!-- _161F026953CB -->
<g id="node4" class="node">
<title>_161F026953CB</title>
<ellipse fill="none" stroke="black" cx="430.69" cy="-366" rx="56.59" ry="18"/>
<text text-anchor="middle" x="430.69" y="-362.3" font-family="Times,serif" font-size="14.00">Constant ir 0</text>
</g>
<!-- _13678F034D0E&#45;&gt;_161F026953CB -->
<g id="edge1" class="edge">
<title>_13678F034D0E&#45;&gt;_161F026953CB</title>
<path fill="none" stroke="black" d="M430.69,-434.8C430.69,-423.16 430.69,-407.55 430.69,-394.24"/>
<polygon fill="black" stroke="black" points="434.19,-394.18 430.69,-384.18 427.19,-394.18 434.19,-394.18"/>
<text text-anchor="middle" x="440.69" y="-405.8" font-family="Times,serif" font-size="14.00">add</text>
</g>
<!-- _5F46DCBEC95 -->
<g id="node5" class="node">
<title>_5F46DCBEC95</title>
<ellipse fill="none" stroke="black" cx="561.69" cy="-366" rx="56.59" ry="18"/>
<text text-anchor="middle" x="561.69" y="-362.3" font-family="Times,serif" font-size="14.00">Constant ir 0</text>
</g>
<!-- _13678F034D0E&#45;&gt;_5F46DCBEC95 -->
<g id="edge2" class="edge">
<title>_13678F034D0E&#45;&gt;_5F46DCBEC95</title>
<path fill="none" stroke="black" d="M453.51,-437.19C474.44,-423.61 505.67,-403.35 529.21,-388.08"/>
<polygon fill="black" stroke="black" points="531.33,-390.88 537.81,-382.5 527.52,-385 531.33,-390.88"/>
<text text-anchor="middle" x="520.19" y="-405.8" font-family="Times,serif" font-size="14.00">phase</text>
</g>
<!-- _15D77E46A618 -->
<g id="node6" class="node">
<title>_15D77E46A618</title>
<ellipse fill="none" stroke="black" cx="135.69" cy="-366" rx="75.29" ry="18"/>
<text text-anchor="middle" x="135.69" y="-362.3" font-family="Times,serif" font-size="14.00">BinaryOpUGen ar</text>
</g>
<!-- _13678F034D0E&#45;&gt;_15D77E46A618 -->
<g id="edge17" class="edge">
<title>_13678F034D0E&#45;&gt;_15D77E46A618</title>
<path fill="none" stroke="black" d="M395.11,-441.75C344.52,-427.17 251.32,-400.32 191.49,-383.08"/>
<polygon fill="black" stroke="black" points="192.4,-379.7 181.82,-380.29 190.46,-386.42 192.4,-379.7"/>
<text text-anchor="middle" x="312.69" y="-405.8" font-family="Times,serif" font-size="14.00">freq</text>
</g>
<!-- _162B3546337E -->
<g id="node21" class="node">
<title>_162B3546337E</title>
<ellipse fill="none" stroke="black" cx="292.69" cy="-366" rx="63.89" ry="18"/>
<text text-anchor="middle" x="292.69" y="-362.3" font-family="Times,serif" font-size="14.00">Constant ir 0.1</text>
</g>
<!-- _13678F034D0E&#45;&gt;_162B3546337E -->
<g id="edge18" class="edge">
<title>_13678F034D0E&#45;&gt;_162B3546337E</title>
<path fill="none" stroke="black" d="M406.97,-437.39C384.87,-423.78 351.68,-403.33 326.75,-387.98"/>
<polygon fill="black" stroke="black" points="328.32,-384.84 317.97,-382.57 324.65,-390.8 328.32,-384.84"/>
<text text-anchor="middle" x="381.69" y="-405.8" font-family="Times,serif" font-size="14.00">mul</text>
</g>
<!-- _575178E7BE3A -->
<g id="node7" class="node">
<title>_575178E7BE3A</title>
<ellipse fill="none" stroke="black" cx="72.69" cy="-279" rx="65.79" ry="18"/>
<text text-anchor="middle" x="72.69" y="-275.3" font-family="Times,serif" font-size="14.00">Constant ir 800</text>
</g>
<!-- _15D77E46A618&#45;&gt;_575178E7BE3A -->
<g id="edge3" class="edge">
<title>_15D77E46A618&#45;&gt;_575178E7BE3A</title>
<path fill="none" stroke="black" d="M123.25,-348.21C114.1,-335.87 101.52,-318.89 91.2,-304.97"/>
<polygon fill="black" stroke="black" points="93.88,-302.71 85.12,-296.76 88.26,-306.88 93.88,-302.71"/>
<text text-anchor="middle" x="112.19" y="-318.8" font-family="Times,serif" font-size="14.00">b</text>
</g>
<!-- _46D3A2378664 -->
<g id="node8" class="node">
<title>_46D3A2378664</title>
<ellipse fill="none" stroke="black" cx="231.69" cy="-279" rx="75.29" ry="18"/>
<text text-anchor="middle" x="231.69" y="-275.3" font-family="Times,serif" font-size="14.00">BinaryOpUGen ar</text>
</g>
<!-- _15D77E46A618&#45;&gt;_46D3A2378664 -->
<g id="edge15" class="edge">
<title>_15D77E46A618&#45;&gt;_46D3A2378664</title>
<path fill="none" stroke="black" d="M154.66,-348.21C169.22,-335.32 189.48,-317.38 205.57,-303.13"/>
<polygon fill="black" stroke="black" points="207.93,-305.72 213.09,-296.47 203.29,-300.48 207.93,-305.72"/>
<text text-anchor="middle" x="193.19" y="-318.8" font-family="Times,serif" font-size="14.00">a</text>
</g>
<!-- _25CBE964BC44 -->
<g id="node20" class="node">
<title>_25CBE964BC44</title>
<ellipse fill="none" stroke="black" cx="382.69" cy="-279" rx="57.69" ry="18"/>
<text text-anchor="middle" x="382.69" y="-275.3" font-family="Times,serif" font-size="14.00">Constant ir +</text>
</g>
<!-- _15D77E46A618&#45;&gt;_25CBE964BC44 -->
<g id="edge16" class="edge">
<title>_15D77E46A618&#45;&gt;_25CBE964BC44</title>
<path fill="none" stroke="black" d="M176.76,-350.87C220.47,-335.83 289.53,-312.06 335.46,-296.26"/>
<polygon fill="black" stroke="black" points="336.86,-299.47 345.18,-292.91 334.58,-292.86 336.86,-299.47"/>
<text text-anchor="middle" x="296.19" y="-318.8" font-family="Times,serif" font-size="14.00">selector</text>
</g>
<!-- _4B6DA811F944 -->
<g id="node9" class="node">
<title>_4B6DA811F944</title>
<ellipse fill="none" stroke="black" cx="112.69" cy="-192" rx="56.59" ry="18"/>
<text text-anchor="middle" x="112.69" y="-188.3" font-family="Times,serif" font-size="14.00">Constant ir *</text>
</g>
<!-- _46D3A2378664&#45;&gt;_4B6DA811F944 -->
<g id="edge4" class="edge">
<title>_46D3A2378664&#45;&gt;_4B6DA811F944</title>
<path fill="none" stroke="black" d="M209.03,-261.81C190.39,-248.49 163.78,-229.49 143.25,-214.83"/>
<polygon fill="black" stroke="black" points="145.04,-211.8 134.87,-208.84 140.97,-217.5 145.04,-211.8"/>
<text text-anchor="middle" x="201.19" y="-231.8" font-family="Times,serif" font-size="14.00">selector</text>
</g>
<!-- _4BE845626E22 -->
<g id="node10" class="node">
<title>_4BE845626E22</title>
<ellipse fill="none" stroke="black" cx="472.69" cy="-192" rx="45.49" ry="18"/>
<text text-anchor="middle" x="472.69" y="-188.3" font-family="Times,serif" font-size="14.00">SinOsc ar</text>
</g>
<!-- _46D3A2378664&#45;&gt;_4BE845626E22 -->
<g id="edge13" class="edge">
<title>_46D3A2378664&#45;&gt;_4BE845626E22</title>
<path fill="none" stroke="black" d="M272.03,-263.77C315.88,-248.31 385.65,-223.7 430.3,-207.95"/>
<polygon fill="black" stroke="black" points="431.71,-211.17 439.97,-204.54 429.38,-204.57 431.71,-211.17"/>
<text text-anchor="middle" x="370.19" y="-231.8" font-family="Times,serif" font-size="14.00">b</text>
</g>
<!-- _24E236C102F3 -->
<g id="node19" class="node">
<title>_24E236C102F3</title>
<ellipse fill="none" stroke="black" cx="252.69" cy="-192" rx="65.79" ry="18"/>
<text text-anchor="middle" x="252.69" y="-188.3" font-family="Times,serif" font-size="14.00">Constant ir 300</text>
</g>
<!-- _46D3A2378664&#45;&gt;_24E236C102F3 -->
<g id="edge14" class="edge">
<title>_46D3A2378664&#45;&gt;_24E236C102F3</title>
<path fill="none" stroke="black" d="M235.94,-260.8C238.82,-249.16 242.68,-233.55 245.97,-220.24"/>
<polygon fill="black" stroke="black" points="249.45,-220.72 248.45,-210.18 242.65,-219.04 249.45,-220.72"/>
<text text-anchor="middle" x="247.19" y="-231.8" font-family="Times,serif" font-size="14.00">a</text>
</g>
<!-- _4B8ECE55F05F -->
<g id="node11" class="node">
<title>_4B8ECE55F05F</title>
<ellipse fill="none" stroke="black" cx="280.69" cy="-105" rx="51.19" ry="18"/>
<text text-anchor="middle" x="280.69" y="-101.3" font-family="Times,serif" font-size="14.00">MouseX kr</text>
</g>
<!-- _4BE845626E22&#45;&gt;_4B8ECE55F05F -->
<g id="edge9" class="edge">
<title>_4BE845626E22&#45;&gt;_4B8ECE55F05F</title>
<path fill="none" stroke="black" d="M443.53,-178.09C410.79,-163.6 357.46,-139.98 320.8,-123.76"/>
<polygon fill="black" stroke="black" points="321.96,-120.44 311.4,-119.59 319.13,-126.84 321.96,-120.44"/>
<text text-anchor="middle" x="399.69" y="-144.8" font-family="Times,serif" font-size="14.00">freq</text>
</g>
<!-- _1452D79B8C97 -->
<g id="node16" class="node">
<title>_1452D79B8C97</title>
<ellipse fill="none" stroke="black" cx="406.69" cy="-105" rx="56.59" ry="18"/>
<text text-anchor="middle" x="406.69" y="-101.3" font-family="Times,serif" font-size="14.00">Constant ir 1</text>
</g>
<!-- _4BE845626E22&#45;&gt;_1452D79B8C97 -->
<g id="edge10" class="edge">
<title>_4BE845626E22&#45;&gt;_1452D79B8C97</title>
<path fill="none" stroke="black" d="M459.97,-174.61C450.35,-162.23 436.99,-145.01 426.05,-130.92"/>
<polygon fill="black" stroke="black" points="428.5,-128.38 419.61,-122.63 422.97,-132.67 428.5,-128.38"/>
<text text-anchor="middle" x="454.69" y="-144.8" font-family="Times,serif" font-size="14.00">mul</text>
</g>
<!-- _569000791C0D -->
<g id="node17" class="node">
<title>_569000791C0D</title>
<ellipse fill="none" stroke="black" cx="537.69" cy="-105" rx="56.59" ry="18"/>
<text text-anchor="middle" x="537.69" y="-101.3" font-family="Times,serif" font-size="14.00">Constant ir 0</text>
</g>
<!-- _4BE845626E22&#45;&gt;_569000791C0D -->
<g id="edge11" class="edge">
<title>_4BE845626E22&#45;&gt;_569000791C0D</title>
<path fill="none" stroke="black" d="M485.23,-174.61C494.7,-162.23 507.86,-145.01 518.63,-130.92"/>
<polygon fill="black" stroke="black" points="521.68,-132.7 524.98,-122.63 516.12,-128.45 521.68,-132.7"/>
<text text-anchor="middle" x="525.19" y="-144.8" font-family="Times,serif" font-size="14.00">phase</text>
</g>
<!-- _53327F14A76 -->
<g id="node18" class="node">
<title>_53327F14A76</title>
<ellipse fill="none" stroke="black" cx="668.69" cy="-105" rx="56.59" ry="18"/>
<text text-anchor="middle" x="668.69" y="-101.3" font-family="Times,serif" font-size="14.00">Constant ir 0</text>
</g>
<!-- _4BE845626E22&#45;&gt;_53327F14A76 -->
<g id="edge12" class="edge">
<title>_4BE845626E22&#45;&gt;_53327F14A76</title>
<path fill="none" stroke="black" d="M502.46,-178.09C535.69,-163.68 589.69,-140.26 627.09,-124.04"/>
<polygon fill="black" stroke="black" points="628.91,-127.07 636.69,-119.88 626.12,-120.65 628.91,-127.07"/>
<text text-anchor="middle" x="592.69" y="-144.8" font-family="Times,serif" font-size="14.00">add</text>
</g>
<!-- _391F8CEFE9AB -->
<g id="node12" class="node">
<title>_391F8CEFE9AB</title>
<ellipse fill="none" stroke="black" cx="63.69" cy="-18" rx="63.89" ry="18"/>
<text text-anchor="middle" x="63.69" y="-14.3" font-family="Times,serif" font-size="14.00">Constant ir 0.2</text>
</g>
<!-- _4B8ECE55F05F&#45;&gt;_391F8CEFE9AB -->
<g id="edge5" class="edge">
<title>_4B8ECE55F05F&#45;&gt;_391F8CEFE9AB</title>
<path fill="none" stroke="black" d="M247.74,-91.09C210.67,-76.57 150.24,-52.9 108.81,-36.67"/>
<polygon fill="black" stroke="black" points="110.08,-33.41 99.5,-33.02 107.53,-39.93 110.08,-33.41"/>
<text text-anchor="middle" x="194.19" y="-57.8" font-family="Times,serif" font-size="14.00">lag</text>
</g>
<!-- _206B7C80F49B -->
<g id="node13" class="node">
<title>_206B7C80F49B</title>
<ellipse fill="none" stroke="black" cx="210.69" cy="-18" rx="65.79" ry="18"/>
<text text-anchor="middle" x="210.69" y="-14.3" font-family="Times,serif" font-size="14.00">Constant ir 100</text>
</g>
<!-- _4B8ECE55F05F&#45;&gt;_206B7C80F49B -->
<g id="edge6" class="edge">
<title>_4B8ECE55F05F&#45;&gt;_206B7C80F49B</title>
<path fill="none" stroke="black" d="M267.2,-87.61C256.9,-75.11 242.55,-57.69 230.89,-43.53"/>
<polygon fill="black" stroke="black" points="233.45,-41.12 224.39,-35.63 228.04,-45.57 233.45,-41.12"/>
<text text-anchor="middle" x="271.19" y="-57.8" font-family="Times,serif" font-size="14.00">maxval</text>
</g>
<!-- _16E239C14285 -->
<g id="node14" class="node">
<title>_16E239C14285</title>
<ellipse fill="none" stroke="black" cx="350.69" cy="-18" rx="56.59" ry="18"/>
<text text-anchor="middle" x="350.69" y="-14.3" font-family="Times,serif" font-size="14.00">Constant ir 1</text>
</g>
<!-- _4B8ECE55F05F&#45;&gt;_16E239C14285 -->
<g id="edge7" class="edge">
<title>_4B8ECE55F05F&#45;&gt;_16E239C14285</title>
<path fill="none" stroke="black" d="M294.19,-87.61C304.49,-75.11 318.83,-57.69 330.5,-43.53"/>
<polygon fill="black" stroke="black" points="333.34,-45.57 337,-35.63 327.94,-41.12 333.34,-45.57"/>
<text text-anchor="middle" x="340.19" y="-57.8" font-family="Times,serif" font-size="14.00">minval</text>
</g>
<!-- _1AEE91975DB6 -->
<g id="node15" class="node">
<title>_1AEE91975DB6</title>
<ellipse fill="none" stroke="black" cx="481.69" cy="-18" rx="56.59" ry="18"/>
<text text-anchor="middle" x="481.69" y="-14.3" font-family="Times,serif" font-size="14.00">Constant ir 0</text>
</g>
<!-- _4B8ECE55F05F&#45;&gt;_1AEE91975DB6 -->
<g id="edge8" class="edge">
<title>_4B8ECE55F05F&#45;&gt;_1AEE91975DB6</title>
<path fill="none" stroke="black" d="M312.23,-90.72C327.73,-84.18 346.7,-76.18 363.69,-69 388.98,-58.31 417.3,-46.31 439.86,-36.75"/>
<polygon fill="black" stroke="black" points="441.31,-39.94 449.15,-32.81 438.57,-33.49 441.31,-39.94"/>
<text text-anchor="middle" x="410.69" y="-57.8" font-family="Times,serif" font-size="14.00">warp</text>
</g>
<!-- _19AC23814F9E -->
<g id="node23" class="node">
<title>_19AC23814F9E</title>
<ellipse fill="none" stroke="black" cx="711.69" cy="-366" rx="75.29" ry="18"/>
<text text-anchor="middle" x="711.69" y="-362.3" font-family="Times,serif" font-size="14.00">BinaryOpUGen ar</text>
</g>
<!-- _3F4255F94896&#45;&gt;_19AC23814F9E -->
<g id="edge26" class="edge">
<title>_3F4255F94896&#45;&gt;_19AC23814F9E</title>
<path fill="none" stroke="black" d="M711.69,-434.8C711.69,-423.16 711.69,-407.55 711.69,-394.24"/>
<polygon fill="black" stroke="black" points="715.19,-394.18 711.69,-384.18 708.19,-394.18 715.19,-394.18"/>
<text text-anchor="middle" x="722.69" y="-405.8" font-family="Times,serif" font-size="14.00">mul</text>
</g>
<!-- _4228E1F46DEC -->
<g id="node29" class="node">
<title>_4228E1F46DEC</title>
<ellipse fill="none" stroke="black" cx="861.69" cy="-366" rx="56.59" ry="18"/>
<text text-anchor="middle" x="861.69" y="-362.3" font-family="Times,serif" font-size="14.00">Constant ir 0</text>
</g>
<!-- _3F4255F94896&#45;&gt;_4228E1F46DEC -->
<g id="edge27" class="edge">
<title>_3F4255F94896&#45;&gt;_4228E1F46DEC</title>
<path fill="none" stroke="black" d="M738.17,-437C762.72,-423.08 799.45,-402.27 826.47,-386.96"/>
<polygon fill="black" stroke="black" points="828.26,-389.97 835.24,-381.99 824.81,-383.88 828.26,-389.97"/>
<text text-anchor="middle" x="805.69" y="-405.8" font-family="Times,serif" font-size="14.00">add</text>
</g>
<!-- _14BE8AE754DC -->
<g id="node24" class="node">
<title>_14BE8AE754DC</title>
<ellipse fill="none" stroke="black" cx="538.69" cy="-279" rx="63.89" ry="18"/>
<text text-anchor="middle" x="538.69" y="-275.3" font-family="Times,serif" font-size="14.00">Constant ir 0.1</text>
</g>
<!-- _19AC23814F9E&#45;&gt;_14BE8AE754DC -->
<g id="edge20" class="edge">
<title>_19AC23814F9E&#45;&gt;_14BE8AE754DC</title>
<path fill="none" stroke="black" d="M680.37,-349.61C651.69,-335.52 609.12,-314.6 578.14,-299.38"/>
<polygon fill="black" stroke="black" points="579.44,-296.12 568.92,-294.85 576.35,-302.4 579.44,-296.12"/>
<text text-anchor="middle" x="639.19" y="-318.8" font-family="Times,serif" font-size="14.00">b</text>
</g>
<!-- _B51BF5EB02C -->
<g id="node25" class="node">
<title>_B51BF5EB02C</title>
<ellipse fill="none" stroke="black" cx="695.69" cy="-279" rx="75.29" ry="18"/>
<text text-anchor="middle" x="695.69" y="-275.3" font-family="Times,serif" font-size="14.00">BinaryOpUGen ar</text>
</g>
<!-- _19AC23814F9E&#45;&gt;_B51BF5EB02C -->
<g id="edge24" class="edge">
<title>_19AC23814F9E&#45;&gt;_B51BF5EB02C</title>
<path fill="none" stroke="black" d="M708.46,-347.8C706.27,-336.16 703.33,-320.55 700.82,-307.24"/>
<polygon fill="black" stroke="black" points="704.22,-306.36 698.93,-297.18 697.34,-307.65 704.22,-306.36"/>
<text text-anchor="middle" x="708.19" y="-318.8" font-family="Times,serif" font-size="14.00">a</text>
</g>
<!-- _2AE68A1F090A -->
<g id="node28" class="node">
<title>_2AE68A1F090A</title>
<ellipse fill="none" stroke="black" cx="846.69" cy="-279" rx="57.69" ry="18"/>
<text text-anchor="middle" x="846.69" y="-275.3" font-family="Times,serif" font-size="14.00">Constant ir +</text>
</g>
<!-- _19AC23814F9E&#45;&gt;_2AE68A1F090A -->
<g id="edge25" class="edge">
<title>_19AC23814F9E&#45;&gt;_2AE68A1F090A</title>
<path fill="none" stroke="black" d="M737.09,-349.01C758.76,-335.37 790.07,-315.65 813.69,-300.78"/>
<polygon fill="black" stroke="black" points="815.73,-303.63 822.33,-295.34 812,-297.71 815.73,-303.63"/>
<text text-anchor="middle" x="809.19" y="-318.8" font-family="Times,serif" font-size="14.00">selector</text>
</g>
<!-- _B51BF5EB02C&#45;&gt;_4BE845626E22 -->
<g id="edge23" class="edge">
<title>_B51BF5EB02C&#45;&gt;_4BE845626E22</title>
<path fill="none" stroke="black" d="M657.36,-263.39C617.35,-248.14 554.85,-224.32 513.83,-208.68"/>
<polygon fill="black" stroke="black" points="515,-205.38 504.41,-205.09 512.5,-211.92 515,-205.38"/>
<text text-anchor="middle" x="601.19" y="-231.8" font-family="Times,serif" font-size="14.00">b</text>
</g>
<!-- _4EFCBAD7518B -->
<g id="node26" class="node">
<title>_4EFCBAD7518B</title>
<ellipse fill="none" stroke="black" cx="626.69" cy="-192" rx="63.89" ry="18"/>
<text text-anchor="middle" x="626.69" y="-188.3" font-family="Times,serif" font-size="14.00">Constant ir 0.1</text>
</g>
<!-- _B51BF5EB02C&#45;&gt;_4EFCBAD7518B -->
<g id="edge21" class="edge">
<title>_B51BF5EB02C&#45;&gt;_4EFCBAD7518B</title>
<path fill="none" stroke="black" d="M682.06,-261.21C671.95,-248.75 658.01,-231.57 646.64,-217.57"/>
<polygon fill="black" stroke="black" points="649.32,-215.32 640.3,-209.76 643.88,-219.73 649.32,-215.32"/>
<text text-anchor="middle" x="669.19" y="-231.8" font-family="Times,serif" font-size="14.00">a</text>
</g>
<!-- _228D331FA4AF -->
<g id="node27" class="node">
<title>_228D331FA4AF</title>
<ellipse fill="none" stroke="black" cx="764.69" cy="-192" rx="56.59" ry="18"/>
<text text-anchor="middle" x="764.69" y="-188.3" font-family="Times,serif" font-size="14.00">Constant ir *</text>
</g>
<!-- _B51BF5EB02C&#45;&gt;_228D331FA4AF -->
<g id="edge22" class="edge">
<title>_B51BF5EB02C&#45;&gt;_228D331FA4AF</title>
<path fill="none" stroke="black" d="M709.33,-261.21C719.44,-248.75 733.38,-231.57 744.75,-217.57"/>
<polygon fill="black" stroke="black" points="747.51,-219.73 751.09,-209.76 742.07,-215.32 747.51,-219.73"/>
<text text-anchor="middle" x="756.19" y="-231.8" font-family="Times,serif" font-size="14.00">selector</text>
</g>
</g>
</svg>
