<?xml version="1.0" encoding="UTF-8" standalone="no"?>
<!DOCTYPE svg PUBLIC "-//W3C//DTD SVG 1.1//EN"
 "http://www.w3.org/Graphics/SVG/1.1/DTD/svg11.dtd">
<!-- Generated by graphviz version 2.44.1 (20200629.0846)
 -->
<!-- Title: g_52105823024 Pages: 1 -->
<svg width="1187pt" height="795pt"
 viewBox="0.00 0.00 1186.52 794.92" xmlns="http://www.w3.org/2000/svg" xmlns:xlink="http://www.w3.org/1999/xlink">
<g id="graph0" class="graph" transform="scale(1 1) rotate(0) translate(4 790.92)">
<title>g_52105823024</title>
<polygon fill="white" stroke="transparent" points="-4,4 -4,-790.92 1182.52,-790.92 1182.52,4 -4,4"/>
<!-- _2C041E3220BB -->
<g id="node1" class="node">
<title>_2C041E3220BB</title>
<ellipse fill="none" stroke="black" cx="480.52" cy="-760.05" rx="43.68" ry="26.74"/>
<text text-anchor="middle" x="480.52" y="-763.85" font-family="Times,serif" font-size="14.00">Out ar</text>
<text text-anchor="middle" x="480.52" y="-748.85" font-family="Times,serif" font-size="14.00">3220BB</text>
</g>
<!-- _14414716F3D6 -->
<g id="node2" class="node">
<title>_14414716F3D6</title>
<ellipse fill="none" stroke="black" cx="459.52" cy="-655.31" rx="66.44" ry="26.74"/>
<text text-anchor="middle" x="459.52" y="-659.11" font-family="Times,serif" font-size="14.00">Control kr out</text>
<text text-anchor="middle" x="459.52" y="-644.11" font-family="Times,serif" font-size="14.00">16F3D6</text>
</g>
<!-- _2C041E3220BB&#45;&gt;_14414716F3D6 -->
<g id="edge1" class="edge">
<title>_2C041E3220BB&#45;&gt;_14414716F3D6</title>
<path fill="none" stroke="black" d="M475.22,-733.13C472.68,-720.71 469.6,-705.65 466.85,-692.16"/>
<polygon fill="black" stroke="black" points="470.25,-691.32 464.82,-682.23 463.39,-692.73 470.25,-691.32"/>
<text text-anchor="middle" x="481.02" y="-703.98" font-family="Times,serif" font-size="14.00">bus</text>
</g>
<!-- _3767C4DA8291 -->
<g id="node3" class="node">
<title>_3767C4DA8291</title>
<ellipse fill="none" stroke="black" cx="625.52" cy="-655.31" rx="82.05" ry="26.74"/>
<text text-anchor="middle" x="625.52" y="-659.11" font-family="Times,serif" font-size="14.00">BinaryOpUGen ar</text>
<text text-anchor="middle" x="625.52" y="-644.11" font-family="Times,serif" font-size="14.00">DA8291</text>
</g>
<!-- _2C041E3220BB&#45;&gt;_3767C4DA8291 -->
<g id="edge31" class="edge">
<title>_2C041E3220BB&#45;&gt;_3767C4DA8291</title>
<path fill="none" stroke="black" d="M508.48,-739.24C529.82,-724.11 559.59,-703.03 583.75,-685.9"/>
<polygon fill="black" stroke="black" points="585.91,-688.66 592.05,-680.03 581.86,-682.95 585.91,-688.66"/>
<text text-anchor="middle" x="602.02" y="-703.98" font-family="Times,serif" font-size="14.00">channelsArray</text>
</g>
<!-- _57F08D37BC95 -->
<g id="node4" class="node">
<title>_57F08D37BC95</title>
<ellipse fill="none" stroke="black" cx="834.52" cy="-550.57" rx="49.49" ry="26.74"/>
<text text-anchor="middle" x="834.52" y="-554.37" font-family="Times,serif" font-size="14.00">SinOsc ar</text>
<text text-anchor="middle" x="834.52" y="-539.37" font-family="Times,serif" font-size="14.00">37BC95</text>
</g>
<!-- _3767C4DA8291&#45;&gt;_57F08D37BC95 -->
<g id="edge20" class="edge">
<title>_3767C4DA8291&#45;&gt;_57F08D37BC95</title>
<path fill="none" stroke="black" d="M669.59,-632.65C704.77,-615.35 753.87,-591.22 789.34,-573.78"/>
<polygon fill="black" stroke="black" points="791.07,-576.83 798.5,-569.28 787.98,-570.55 791.07,-576.83"/>
<text text-anchor="middle" x="747.02" y="-599.24" font-family="Times,serif" font-size="14.00">a</text>
</g>
<!-- _46B39D9AE68F -->
<g id="node16" class="node">
<title>_46B39D9AE68F</title>
<ellipse fill="none" stroke="black" cx="633.52" cy="-341.09" rx="62.87" ry="26.74"/>
<text text-anchor="middle" x="633.52" y="-344.89" font-family="Times,serif" font-size="14.00">Constant ir +</text>
<text text-anchor="middle" x="633.52" y="-329.89" font-family="Times,serif" font-size="14.00">9AE68F</text>
</g>
<!-- _3767C4DA8291&#45;&gt;_46B39D9AE68F -->
<g id="edge30" class="edge">
<title>_3767C4DA8291&#45;&gt;_46B39D9AE68F</title>
<path fill="none" stroke="black" d="M626.19,-628.23C627.61,-572.67 630.94,-442.53 632.58,-378.7"/>
<polygon fill="black" stroke="black" points="636.09,-378.4 632.85,-368.32 629.09,-378.23 636.09,-378.4"/>
<text text-anchor="middle" x="652.02" y="-494.5" font-family="Times,serif" font-size="14.00">selector</text>
</g>
<!-- _4255878FA5C -->
<g id="node18" class="node">
<title>_4255878FA5C</title>
<ellipse fill="none" stroke="black" cx="470.52" cy="-550.57" rx="61.54" ry="26.74"/>
<text text-anchor="middle" x="470.52" y="-554.37" font-family="Times,serif" font-size="14.00">PinkNoise ar</text>
<text text-anchor="middle" x="470.52" y="-539.37" font-family="Times,serif" font-size="14.00">78FA5C</text>
</g>
<!-- _3767C4DA8291&#45;&gt;_4255878FA5C -->
<g id="edge29" class="edge">
<title>_3767C4DA8291&#45;&gt;_4255878FA5C</title>
<path fill="none" stroke="black" d="M590.35,-631C567.02,-615.53 536.3,-595.18 511.81,-578.94"/>
<polygon fill="black" stroke="black" points="513.7,-575.99 503.43,-573.39 509.83,-581.83 513.7,-575.99"/>
<text text-anchor="middle" x="561.02" y="-599.24" font-family="Times,serif" font-size="14.00">b</text>
</g>
<!-- _2133F3661E28 -->
<g id="node5" class="node">
<title>_2133F3661E28</title>
<ellipse fill="none" stroke="black" cx="834.52" cy="-445.83" rx="82.05" ry="26.74"/>
<text text-anchor="middle" x="834.52" y="-449.63" font-family="Times,serif" font-size="14.00">BinaryOpUGen ar</text>
<text text-anchor="middle" x="834.52" y="-434.63" font-family="Times,serif" font-size="14.00">661E28</text>
</g>
<!-- _57F08D37BC95&#45;&gt;_2133F3661E28 -->
<g id="edge16" class="edge">
<title>_57F08D37BC95&#45;&gt;_2133F3661E28</title>
<path fill="none" stroke="black" d="M834.52,-523.64C834.52,-511.36 834.52,-496.47 834.52,-483.08"/>
<polygon fill="black" stroke="black" points="838.02,-482.75 834.52,-472.75 831.02,-482.75 838.02,-482.75"/>
<text text-anchor="middle" x="845.52" y="-494.5" font-family="Times,serif" font-size="14.00">freq</text>
</g>
<!-- _3740DD3AA43F -->
<g id="node12" class="node">
<title>_3740DD3AA43F</title>
<ellipse fill="none" stroke="black" cx="628.52" cy="-26.87" rx="61.54" ry="26.74"/>
<text text-anchor="middle" x="628.52" y="-30.67" font-family="Times,serif" font-size="14.00">Constant ir 0</text>
<text text-anchor="middle" x="628.52" y="-15.67" font-family="Times,serif" font-size="14.00">3AA43F</text>
</g>
<!-- _57F08D37BC95&#45;&gt;_3740DD3AA43F -->
<g id="edge17" class="edge">
<title>_57F08D37BC95&#45;&gt;_3740DD3AA43F</title>
<path fill="none" stroke="black" d="M881.55,-541.65C958.91,-527.28 1104.52,-493.98 1104.52,-446.83 1104.52,-446.83 1104.52,-446.83 1104.52,-130.61 1104.52,-48.94 833.37,-32.02 700.37,-28.64"/>
<polygon fill="black" stroke="black" points="700.34,-25.14 690.26,-28.4 700.17,-32.14 700.34,-25.14"/>
<text text-anchor="middle" x="1114.52" y="-285.02" font-family="Times,serif" font-size="14.00">add</text>
</g>
<!-- _57F08D37BC95&#45;&gt;_3740DD3AA43F -->
<g id="edge19" class="edge">
<title>_57F08D37BC95&#45;&gt;_3740DD3AA43F</title>
<path fill="none" stroke="black" d="M882.74,-543.9C970.54,-532.23 1147.52,-501.88 1147.52,-446.83 1147.52,-446.83 1147.52,-446.83 1147.52,-130.61 1147.52,-40.55 843,-28.18 700.48,-27.32"/>
<polygon fill="black" stroke="black" points="700.11,-23.82 690.09,-27.28 700.08,-30.82 700.11,-23.82"/>
<text text-anchor="middle" x="1163.02" y="-285.02" font-family="Times,serif" font-size="14.00">phase</text>
</g>
<!-- _55F1F8BF22D9 -->
<g id="node17" class="node">
<title>_55F1F8BF22D9</title>
<ellipse fill="none" stroke="black" cx="470.52" cy="-236.35" rx="69.09" ry="26.74"/>
<text text-anchor="middle" x="470.52" y="-240.15" font-family="Times,serif" font-size="14.00">Constant ir 0.1</text>
<text text-anchor="middle" x="470.52" y="-225.15" font-family="Times,serif" font-size="14.00">BF22D9</text>
</g>
<!-- _57F08D37BC95&#45;&gt;_55F1F8BF22D9 -->
<g id="edge18" class="edge">
<title>_57F08D37BC95&#45;&gt;_55F1F8BF22D9</title>
<path fill="none" stroke="black" d="M802.12,-529.91C782.31,-516.25 758.06,-496.29 743.52,-472.7 705.51,-411.04 754.63,-367.46 705.52,-314.22 702.45,-310.9 601.66,-278.66 533.08,-257"/>
<polygon fill="black" stroke="black" points="533.8,-253.56 523.21,-253.89 531.7,-260.23 533.8,-253.56"/>
<text text-anchor="middle" x="740.52" y="-389.76" font-family="Times,serif" font-size="14.00">mul</text>
</g>
<!-- _1BD8EB8C0035 -->
<g id="node6" class="node">
<title>_1BD8EB8C0035</title>
<ellipse fill="none" stroke="black" cx="834.52" cy="-341.09" rx="82.05" ry="26.74"/>
<text text-anchor="middle" x="834.52" y="-344.89" font-family="Times,serif" font-size="14.00">BinaryOpUGen ar</text>
<text text-anchor="middle" x="834.52" y="-329.89" font-family="Times,serif" font-size="14.00">8C0035</text>
</g>
<!-- _2133F3661E28&#45;&gt;_1BD8EB8C0035 -->
<g id="edge13" class="edge">
<title>_2133F3661E28&#45;&gt;_1BD8EB8C0035</title>
<path fill="none" stroke="black" d="M834.52,-418.9C834.52,-406.62 834.52,-391.73 834.52,-378.34"/>
<polygon fill="black" stroke="black" points="838.02,-378.01 834.52,-368.01 831.02,-378.01 838.02,-378.01"/>
<text text-anchor="middle" x="838.02" y="-389.76" font-family="Times,serif" font-size="14.00">a</text>
</g>
<!-- _127EFD224CAB -->
<g id="node15" class="node">
<title>_127EFD224CAB</title>
<ellipse fill="none" stroke="black" cx="1005.52" cy="-341.09" rx="71.34" ry="26.74"/>
<text text-anchor="middle" x="1005.52" y="-344.89" font-family="Times,serif" font-size="14.00">Constant ir 800</text>
<text text-anchor="middle" x="1005.52" y="-329.89" font-family="Times,serif" font-size="14.00">224CAB</text>
</g>
<!-- _2133F3661E28&#45;&gt;_127EFD224CAB -->
<g id="edge14" class="edge">
<title>_2133F3661E28&#45;&gt;_127EFD224CAB</title>
<path fill="none" stroke="black" d="M872.89,-421.77C898.64,-406.31 932.67,-385.86 959.82,-369.55"/>
<polygon fill="black" stroke="black" points="961.97,-372.34 968.74,-364.19 958.36,-366.34 961.97,-372.34"/>
<text text-anchor="middle" x="934.02" y="-389.76" font-family="Times,serif" font-size="14.00">b</text>
</g>
<!-- _2133F3661E28&#45;&gt;_46B39D9AE68F -->
<g id="edge15" class="edge">
<title>_2133F3661E28&#45;&gt;_46B39D9AE68F</title>
<path fill="none" stroke="black" d="M754.39,-439.96C721.88,-434.39 685.86,-423.16 659.52,-400.96 652.18,-394.77 646.84,-386.11 642.98,-377.33"/>
<polygon fill="black" stroke="black" points="646.2,-375.94 639.35,-367.86 639.66,-378.45 646.2,-375.94"/>
<text text-anchor="middle" x="681.02" y="-389.76" font-family="Times,serif" font-size="14.00">selector</text>
</g>
<!-- _33E9B7FA9095 -->
<g id="node7" class="node">
<title>_33E9B7FA9095</title>
<ellipse fill="none" stroke="black" cx="756.52" cy="-236.35" rx="61.54" ry="26.74"/>
<text text-anchor="middle" x="756.52" y="-240.15" font-family="Times,serif" font-size="14.00">Constant ir *</text>
<text text-anchor="middle" x="756.52" y="-225.15" font-family="Times,serif" font-size="14.00">FA9095</text>
</g>
<!-- _1BD8EB8C0035&#45;&gt;_33E9B7FA9095 -->
<g id="edge2" class="edge">
<title>_1BD8EB8C0035&#45;&gt;_33E9B7FA9095</title>
<path fill="none" stroke="black" d="M823.3,-314.34C818.04,-303.61 811.23,-291.32 803.52,-281.22 799.96,-276.56 795.88,-271.97 791.65,-267.61"/>
<polygon fill="black" stroke="black" points="794.03,-265.03 784.44,-260.52 789.12,-270.03 794.03,-265.03"/>
<text text-anchor="middle" x="835.02" y="-285.02" font-family="Times,serif" font-size="14.00">selector</text>
</g>
<!-- _3AE496148EC3 -->
<g id="node8" class="node">
<title>_3AE496148EC3</title>
<ellipse fill="none" stroke="black" cx="611.52" cy="-236.35" rx="49.49" ry="26.74"/>
<text text-anchor="middle" x="611.52" y="-240.15" font-family="Times,serif" font-size="14.00">SinOsc ar</text>
<text text-anchor="middle" x="611.52" y="-225.15" font-family="Times,serif" font-size="14.00">148EC3</text>
</g>
<!-- _1BD8EB8C0035&#45;&gt;_3AE496148EC3 -->
<g id="edge11" class="edge">
<title>_1BD8EB8C0035&#45;&gt;_3AE496148EC3</title>
<path fill="none" stroke="black" d="M784.02,-319.79C766.64,-312.6 747.12,-304.28 729.52,-296.22 704.75,-284.88 677.51,-271.36 655.45,-260.14"/>
<polygon fill="black" stroke="black" points="656.83,-256.92 646.33,-255.49 653.65,-263.15 656.83,-256.92"/>
<text text-anchor="middle" x="733.02" y="-285.02" font-family="Times,serif" font-size="14.00">b</text>
</g>
<!-- _56B328A7AEE0 -->
<g id="node14" class="node">
<title>_56B328A7AEE0</title>
<ellipse fill="none" stroke="black" cx="907.52" cy="-236.35" rx="71.34" ry="26.74"/>
<text text-anchor="middle" x="907.52" y="-240.15" font-family="Times,serif" font-size="14.00">Constant ir 300</text>
<text text-anchor="middle" x="907.52" y="-225.15" font-family="Times,serif" font-size="14.00">A7AEE0</text>
</g>
<!-- _1BD8EB8C0035&#45;&gt;_56B328A7AEE0 -->
<g id="edge12" class="edge">
<title>_1BD8EB8C0035&#45;&gt;_56B328A7AEE0</title>
<path fill="none" stroke="black" d="M861.38,-315.28C867.07,-309.34 872.79,-302.8 877.52,-296.22 882.87,-288.78 887.8,-280.24 892.06,-272.03"/>
<polygon fill="black" stroke="black" points="895.25,-273.47 896.56,-262.96 888.98,-270.36 895.25,-273.47"/>
<text text-anchor="middle" x="890.02" y="-285.02" font-family="Times,serif" font-size="14.00">a</text>
</g>
<!-- _242F20706C86 -->
<g id="node9" class="node">
<title>_242F20706C86</title>
<ellipse fill="none" stroke="black" cx="275.52" cy="-131.61" rx="55.72" ry="26.74"/>
<text text-anchor="middle" x="275.52" y="-135.41" font-family="Times,serif" font-size="14.00">MouseX kr</text>
<text text-anchor="middle" x="275.52" y="-120.41" font-family="Times,serif" font-size="14.00">706C86</text>
</g>
<!-- _3AE496148EC3&#45;&gt;_242F20706C86 -->
<g id="edge7" class="edge">
<title>_3AE496148EC3&#45;&gt;_242F20706C86</title>
<path fill="none" stroke="black" d="M573.47,-218.9C565.31,-215.61 556.68,-212.29 548.52,-209.48 475.73,-184.38 390.01,-161.27 334.32,-147.07"/>
<polygon fill="black" stroke="black" points="335.17,-143.68 324.62,-144.62 333.45,-150.47 335.17,-143.68"/>
<text text-anchor="middle" x="500.52" y="-180.28" font-family="Times,serif" font-size="14.00">freq</text>
</g>
<!-- _3AE496148EC3&#45;&gt;_3740DD3AA43F -->
<g id="edge9" class="edge">
<title>_3AE496148EC3&#45;&gt;_3740DD3AA43F</title>
<path fill="none" stroke="black" d="M613.64,-209.49C616.65,-172.74 622.18,-105.25 625.58,-63.7"/>
<polygon fill="black" stroke="black" points="629.07,-63.98 626.4,-53.73 622.09,-63.41 629.07,-63.98"/>
<text text-anchor="middle" x="638.02" y="-127.91" font-family="Times,serif" font-size="14.00">phase</text>
</g>
<!-- _3AE496148EC3&#45;&gt;_3740DD3AA43F -->
<g id="edge10" class="edge">
<title>_3AE496148EC3&#45;&gt;_3740DD3AA43F</title>
<path fill="none" stroke="black" d="M603.09,-209.62C595.59,-183.13 586.91,-140.76 594.52,-104.74 597.58,-90.26 603.55,-75.2 609.64,-62.28"/>
<polygon fill="black" stroke="black" points="612.79,-63.81 614.06,-53.29 606.51,-60.72 612.79,-63.81"/>
<text text-anchor="middle" x="604.52" y="-127.91" font-family="Times,serif" font-size="14.00">add</text>
</g>
<!-- _41B473192B2F -->
<g id="node13" class="node">
<title>_41B473192B2F</title>
<ellipse fill="none" stroke="black" cx="61.52" cy="-26.87" rx="61.54" ry="26.74"/>
<text text-anchor="middle" x="61.52" y="-30.67" font-family="Times,serif" font-size="14.00">Constant ir 1</text>
<text text-anchor="middle" x="61.52" y="-15.67" font-family="Times,serif" font-size="14.00">192B2F</text>
</g>
<!-- _3AE496148EC3&#45;&gt;_41B473192B2F -->
<g id="edge8" class="edge">
<title>_3AE496148EC3&#45;&gt;_41B473192B2F</title>
<path fill="none" stroke="black" d="M574.41,-218.33C566.03,-214.99 557.08,-211.8 548.52,-209.48 392.57,-167.13 332.59,-231.68 188.52,-158.48 144.19,-135.96 106.41,-91.84 83.85,-61.14"/>
<polygon fill="black" stroke="black" points="86.58,-58.94 77.9,-52.87 80.9,-63.03 86.58,-58.94"/>
<text text-anchor="middle" x="199.52" y="-127.91" font-family="Times,serif" font-size="14.00">mul</text>
</g>
<!-- _2B0C997C6B75 -->
<g id="node10" class="node">
<title>_2B0C997C6B75</title>
<ellipse fill="none" stroke="black" cx="212.52" cy="-26.87" rx="71.34" ry="26.74"/>
<text text-anchor="middle" x="212.52" y="-30.67" font-family="Times,serif" font-size="14.00">Constant ir 100</text>
<text text-anchor="middle" x="212.52" y="-15.67" font-family="Times,serif" font-size="14.00">7C6B75</text>
</g>
<!-- _242F20706C86&#45;&gt;_2B0C997C6B75 -->
<g id="edge3" class="edge">
<title>_242F20706C86&#45;&gt;_2B0C997C6B75</title>
<path fill="none" stroke="black" d="M237.14,-111.76C227.75,-105.2 218.88,-96.88 213.52,-86.74 209.87,-79.83 208.31,-71.79 207.92,-63.92"/>
<polygon fill="black" stroke="black" points="211.42,-63.8 208,-53.77 204.42,-63.74 211.42,-63.8"/>
<text text-anchor="middle" x="234.02" y="-75.54" font-family="Times,serif" font-size="14.00">maxval</text>
</g>
<!-- _553025BBE272 -->
<g id="node11" class="node">
<title>_553025BBE272</title>
<ellipse fill="none" stroke="black" cx="371.52" cy="-26.87" rx="69.09" ry="26.74"/>
<text text-anchor="middle" x="371.52" y="-30.67" font-family="Times,serif" font-size="14.00">Constant ir 0.2</text>
<text text-anchor="middle" x="371.52" y="-15.67" font-family="Times,serif" font-size="14.00">BBE272</text>
</g>
<!-- _242F20706C86&#45;&gt;_553025BBE272 -->
<g id="edge4" class="edge">
<title>_242F20706C86&#45;&gt;_553025BBE272</title>
<path fill="none" stroke="black" d="M270.71,-104.75C270.03,-93.76 271.2,-81.3 277.52,-71.74 284.49,-61.19 294.71,-53.13 305.88,-46.98"/>
<polygon fill="black" stroke="black" points="307.59,-50.04 314.99,-42.45 304.47,-43.77 307.59,-50.04"/>
<text text-anchor="middle" x="286.02" y="-75.54" font-family="Times,serif" font-size="14.00">lag</text>
</g>
<!-- _242F20706C86&#45;&gt;_3740DD3AA43F -->
<g id="edge5" class="edge">
<title>_242F20706C86&#45;&gt;_3740DD3AA43F</title>
<path fill="none" stroke="black" d="M287.39,-105.32C294.42,-93.18 304.51,-79.59 317.52,-71.74 368.2,-41.13 390.88,-61.97 449.52,-53.74 486.29,-48.58 527.29,-42.66 560.76,-37.79"/>
<polygon fill="black" stroke="black" points="561.5,-41.22 570.9,-36.32 560.5,-34.29 561.5,-41.22"/>
<text text-anchor="middle" x="331.52" y="-75.54" font-family="Times,serif" font-size="14.00">warp</text>
</g>
<!-- _242F20706C86&#45;&gt;_41B473192B2F -->
<g id="edge6" class="edge">
<title>_242F20706C86&#45;&gt;_41B473192B2F</title>
<path fill="none" stroke="black" d="M232,-114.57C211.82,-106.76 187.67,-96.88 166.52,-86.74 146.11,-76.96 124.18,-64.92 105.67,-54.29"/>
<polygon fill="black" stroke="black" points="107.28,-51.18 96.88,-49.19 103.78,-57.23 107.28,-51.18"/>
<text text-anchor="middle" x="186.02" y="-75.54" font-family="Times,serif" font-size="14.00">minval</text>
</g>
<!-- _4255878FA5C&#45;&gt;_3740DD3AA43F -->
<g id="edge21" class="edge">
<title>_4255878FA5C&#45;&gt;_3740DD3AA43F</title>
<path fill="none" stroke="black" d="M434.88,-528.37C415.42,-514.89 392.67,-495.68 379.52,-472.7 337.06,-398.51 344.21,-364.93 361.52,-281.22 384.83,-168.48 507.57,-88.95 578.24,-51.72"/>
<polygon fill="black" stroke="black" points="580.16,-54.66 587.43,-46.96 576.94,-48.45 580.16,-54.66"/>
<text text-anchor="middle" x="371.52" y="-285.02" font-family="Times,serif" font-size="14.00">add</text>
</g>
<!-- _3E31D7B06397 -->
<g id="node19" class="node">
<title>_3E31D7B06397</title>
<ellipse fill="none" stroke="black" cx="470.52" cy="-445.83" rx="82.05" ry="26.74"/>
<text text-anchor="middle" x="470.52" y="-449.63" font-family="Times,serif" font-size="14.00">BinaryOpUGen ar</text>
<text text-anchor="middle" x="470.52" y="-434.63" font-family="Times,serif" font-size="14.00">B06397</text>
</g>
<!-- _4255878FA5C&#45;&gt;_3E31D7B06397 -->
<g id="edge28" class="edge">
<title>_4255878FA5C&#45;&gt;_3E31D7B06397</title>
<path fill="none" stroke="black" d="M470.52,-523.64C470.52,-511.36 470.52,-496.47 470.52,-483.08"/>
<polygon fill="black" stroke="black" points="474.02,-482.75 470.52,-472.75 467.02,-482.75 474.02,-482.75"/>
<text text-anchor="middle" x="481.52" y="-494.5" font-family="Times,serif" font-size="14.00">mul</text>
</g>
<!-- _3E31D7B06397&#45;&gt;_46B39D9AE68F -->
<g id="edge23" class="edge">
<title>_3E31D7B06397&#45;&gt;_46B39D9AE68F</title>
<path fill="none" stroke="black" d="M507.1,-421.77C531.89,-406.15 564.75,-385.44 590.75,-369.05"/>
<polygon fill="black" stroke="black" points="592.69,-371.96 599.29,-363.67 588.96,-366.04 592.69,-371.96"/>
<text text-anchor="middle" x="584.02" y="-389.76" font-family="Times,serif" font-size="14.00">selector</text>
</g>
<!-- _3E31D7B06397&#45;&gt;_55F1F8BF22D9 -->
<g id="edge22" class="edge">
<title>_3E31D7B06397&#45;&gt;_55F1F8BF22D9</title>
<path fill="none" stroke="black" d="M427.05,-422.87C406.48,-409.95 383.97,-391.49 372.52,-367.96 362.07,-346.48 362.07,-335.7 372.52,-314.22 382.77,-293.14 401.91,-276.13 420.58,-263.52"/>
<polygon fill="black" stroke="black" points="422.58,-266.4 429.09,-258.04 418.78,-260.52 422.58,-266.4"/>
<text text-anchor="middle" x="376.02" y="-337.39" font-family="Times,serif" font-size="14.00">b</text>
</g>
<!-- _D2B836C8433 -->
<g id="node20" class="node">
<title>_D2B836C8433</title>
<ellipse fill="none" stroke="black" cx="470.52" cy="-341.09" rx="82.05" ry="26.74"/>
<text text-anchor="middle" x="470.52" y="-344.89" font-family="Times,serif" font-size="14.00">BinaryOpUGen ar</text>
<text text-anchor="middle" x="470.52" y="-329.89" font-family="Times,serif" font-size="14.00">6C8433</text>
</g>
<!-- _3E31D7B06397&#45;&gt;_D2B836C8433 -->
<g id="edge27" class="edge">
<title>_3E31D7B06397&#45;&gt;_D2B836C8433</title>
<path fill="none" stroke="black" d="M470.52,-418.9C470.52,-406.62 470.52,-391.73 470.52,-378.34"/>
<polygon fill="black" stroke="black" points="474.02,-378.01 470.52,-368.01 467.02,-378.01 474.02,-378.01"/>
<text text-anchor="middle" x="474.02" y="-389.76" font-family="Times,serif" font-size="14.00">a</text>
</g>
<!-- _D2B836C8433&#45;&gt;_33E9B7FA9095 -->
<g id="edge24" class="edge">
<title>_D2B836C8433&#45;&gt;_33E9B7FA9095</title>
<path fill="none" stroke="black" d="M528.41,-322.01C539.33,-319.07 550.71,-316.3 561.52,-314.22 599.47,-306.91 703.95,-319.87 734.52,-296.22 742,-290.44 746.93,-281.82 750.19,-272.96"/>
<polygon fill="black" stroke="black" points="753.55,-273.95 753.11,-263.36 746.85,-271.91 753.55,-273.95"/>
<text text-anchor="middle" x="768.02" y="-285.02" font-family="Times,serif" font-size="14.00">selector</text>
</g>
<!-- _D2B836C8433&#45;&gt;_3AE496148EC3 -->
<g id="edge26" class="edge">
<title>_D2B836C8433&#45;&gt;_3AE496148EC3</title>
<path fill="none" stroke="black" d="M503.22,-316.26C524.57,-300.7 552.49,-280.36 574.64,-264.22"/>
<polygon fill="black" stroke="black" points="576.79,-266.98 582.81,-258.27 572.67,-261.33 576.79,-266.98"/>
<text text-anchor="middle" x="553.02" y="-285.02" font-family="Times,serif" font-size="14.00">b</text>
</g>
<!-- _D2B836C8433&#45;&gt;_55F1F8BF22D9 -->
<g id="edge25" class="edge">
<title>_D2B836C8433&#45;&gt;_55F1F8BF22D9</title>
<path fill="none" stroke="black" d="M470.52,-314.16C470.52,-301.88 470.52,-286.99 470.52,-273.6"/>
<polygon fill="black" stroke="black" points="474.02,-273.27 470.52,-263.27 467.02,-273.27 474.02,-273.27"/>
<text text-anchor="middle" x="474.02" y="-285.02" font-family="Times,serif" font-size="14.00">a</text>
</g>
</g>
</svg>
