<?xml version="1.0" encoding="UTF-8" standalone="no"?>
<!DOCTYPE svg PUBLIC "-//W3C//DTD SVG 1.1//EN"
 "http://www.w3.org/Graphics/SVG/1.1/DTD/svg11.dtd">
<!-- Generated by graphviz version 2.47.1 (20210417.1919)
 -->
<!-- Title: simple Pages: 1 -->
<svg width="1060pt" height="440pt"
 viewBox="0.00 0.00 1059.97 439.60" xmlns="http://www.w3.org/2000/svg" xmlns:xlink="http://www.w3.org/1999/xlink">
<g id="graph0" class="graph" transform="scale(1 1) rotate(0) translate(4 435.6)">
<title>simple</title>
<polygon fill="white" stroke="transparent" points="-4,4 -4,-435.6 1055.97,-435.6 1055.97,4 -4,4"/>
<!-- id_677747160 -->
<g id="node1" class="node">
<title>id_677747160</title>
<ellipse fill="none" stroke="black" cx="146.01" cy="-404.73" rx="27" ry="26.74"/>
<text text-anchor="middle" x="146.01" y="-408.53" font-family="Times,serif" font-size="14.00">Out</text>
<text text-anchor="middle" x="146.01" y="-393.53" font-family="Times,serif" font-size="14.00">ar</text>
</g>
<!-- id_241216951 -->
<g id="node2" class="node">
<title>id_241216951</title>
<ellipse fill="none" stroke="black" cx="125.01" cy="-289.38" rx="41.02" ry="37.45"/>
<text text-anchor="middle" x="125.01" y="-300.68" font-family="Times,serif" font-size="14.00">Control</text>
<text text-anchor="middle" x="125.01" y="-285.68" font-family="Times,serif" font-size="14.00">kr</text>
<text text-anchor="middle" x="125.01" y="-270.68" font-family="Times,serif" font-size="14.00">out</text>
</g>
<!-- id_677747160&#45;&gt;id_241216951 -->
<g id="edge1" class="edge">
<title>id_677747160&#45;&gt;id_241216951</title>
<path fill="none" stroke="black" d="M141.25,-378.01C138.99,-365.82 136.22,-350.86 133.61,-336.79"/>
<polygon fill="black" stroke="black" points="137.01,-335.94 131.75,-326.74 130.13,-337.21 137.01,-335.94"/>
<text text-anchor="middle" x="147.51" y="-348.66" font-family="Times,serif" font-size="14.00">bus</text>
</g>
<!-- id_978616103 -->
<g id="node3" class="node">
<title>id_978616103</title>
<ellipse fill="none" stroke="black" cx="256.01" cy="-289.38" rx="72.25" ry="26.74"/>
<text text-anchor="middle" x="256.01" y="-293.18" font-family="Times,serif" font-size="14.00">BinaryOpUGen</text>
<text text-anchor="middle" x="256.01" y="-278.18" font-family="Times,serif" font-size="14.00">ar</text>
</g>
<!-- id_677747160&#45;&gt;id_978616103 -->
<g id="edge15" class="edge">
<title>id_677747160&#45;&gt;id_978616103</title>
<path fill="none" stroke="black" d="M164.42,-384.76C180.91,-367.77 205.42,-342.51 224.94,-322.4"/>
<polygon fill="black" stroke="black" points="227.7,-324.58 232.15,-314.97 222.68,-319.71 227.7,-324.58"/>
<text text-anchor="middle" x="240.51" y="-348.66" font-family="Times,serif" font-size="14.00">channelsArray</text>
</g>
<!-- * -->
<g id="node4" class="node">
<title>*</title>
<ellipse fill="none" stroke="black" cx="171.01" cy="-174.04" rx="27" ry="18"/>
<text text-anchor="middle" x="171.01" y="-170.34" font-family="Times,serif" font-size="14.00">*</text>
</g>
<!-- id_978616103&#45;&gt;* -->
<g id="edge2" class="edge">
<title>id_978616103&#45;&gt;*</title>
<path fill="none" stroke="black" d="M233.5,-263.76C225.48,-254.62 216.57,-244.01 209.01,-233.91 200.81,-222.95 192.48,-210.25 185.72,-199.46"/>
<polygon fill="black" stroke="black" points="188.68,-197.59 180.44,-190.93 182.72,-201.27 188.68,-197.59"/>
<text text-anchor="middle" x="230.51" y="-222.71" font-family="Times,serif" font-size="14.00">selector</text>
</g>
<!-- id_439366130 -->
<g id="node5" class="node">
<title>id_439366130</title>
<ellipse fill="none" stroke="black" cx="256.01" cy="-174.04" rx="39.7" ry="26.74"/>
<text text-anchor="middle" x="256.01" y="-177.84" font-family="Times,serif" font-size="14.00">SinOsc</text>
<text text-anchor="middle" x="256.01" y="-162.84" font-family="Times,serif" font-size="14.00">ar</text>
</g>
<!-- id_978616103&#45;&gt;id_439366130 -->
<g id="edge7" class="edge">
<title>id_978616103&#45;&gt;id_439366130</title>
<path fill="none" stroke="black" d="M256.01,-262.38C256.01,-247.26 256.01,-227.97 256.01,-211.37"/>
<polygon fill="black" stroke="black" points="259.51,-210.92 256.01,-200.92 252.51,-210.92 259.51,-210.92"/>
<text text-anchor="middle" x="259.51" y="-222.71" font-family="Times,serif" font-size="14.00">a</text>
</g>
<!-- id_873170700 -->
<g id="node10" class="node">
<title>id_873170700</title>
<ellipse fill="none" stroke="black" cx="686.01" cy="-174.04" rx="28.98" ry="26.74"/>
<text text-anchor="middle" x="686.01" y="-177.84" font-family="Times,serif" font-size="14.00">Line</text>
<text text-anchor="middle" x="686.01" y="-162.84" font-family="Times,serif" font-size="14.00">kr</text>
</g>
<!-- id_978616103&#45;&gt;id_873170700 -->
<g id="edge14" class="edge">
<title>id_978616103&#45;&gt;id_873170700</title>
<path fill="none" stroke="black" d="M314,-273.1C403.55,-249.49 573,-204.83 648.3,-184.98"/>
<polygon fill="black" stroke="black" points="649.51,-188.28 658.29,-182.34 647.73,-181.51 649.51,-188.28"/>
<text text-anchor="middle" x="513.51" y="-222.71" font-family="Times,serif" font-size="14.00">b</text>
</g>
<!-- id_48357974 -->
<g id="node6" class="node">
<title>id_48357974</title>
<ellipse fill="none" stroke="black" cx="41.01" cy="-48.08" rx="41.02" ry="48.17"/>
<text text-anchor="middle" x="41.01" y="-66.88" font-family="Times,serif" font-size="14.00">Control</text>
<text text-anchor="middle" x="41.01" y="-51.88" font-family="Times,serif" font-size="14.00">kr</text>
<text text-anchor="middle" x="41.01" y="-36.88" font-family="Times,serif" font-size="14.00">freq</text>
<text text-anchor="middle" x="41.01" y="-21.88" font-family="Times,serif" font-size="14.00">800</text>
</g>
<!-- id_439366130&#45;&gt;id_48357974 -->
<g id="edge3" class="edge">
<title>id_439366130&#45;&gt;id_48357974</title>
<path fill="none" stroke="black" d="M225.6,-156.55C219.49,-153.36 213.08,-150.1 207.01,-147.17 156.3,-122.67 137.97,-127.26 91.01,-96.17 87,-93.51 83.01,-90.52 79.13,-87.37"/>
<polygon fill="black" stroke="black" points="81.24,-84.56 71.36,-80.72 76.69,-89.88 81.24,-84.56"/>
<text text-anchor="middle" x="173.01" y="-117.97" font-family="Times,serif" font-size="14.00">freq</text>
</g>
<!-- id_219551167 -->
<g id="node7" class="node">
<title>id_219551167</title>
<ellipse fill="none" stroke="black" cx="146.01" cy="-48.08" rx="45.92" ry="37.45"/>
<text text-anchor="middle" x="146.01" y="-59.38" font-family="Times,serif" font-size="14.00">Constant</text>
<text text-anchor="middle" x="146.01" y="-44.38" font-family="Times,serif" font-size="14.00">ir</text>
<text text-anchor="middle" x="146.01" y="-29.38" font-family="Times,serif" font-size="14.00">0.2</text>
</g>
<!-- id_439366130&#45;&gt;id_219551167 -->
<g id="edge4" class="edge">
<title>id_439366130&#45;&gt;id_219551167</title>
<path fill="none" stroke="black" d="M236.09,-150.59C220.21,-132.69 197.63,-107.25 179.06,-86.32"/>
<polygon fill="black" stroke="black" points="181.67,-83.99 172.41,-78.83 176.43,-88.63 181.67,-83.99"/>
<text text-anchor="middle" x="226.01" y="-117.97" font-family="Times,serif" font-size="14.00">mul</text>
</g>
<!-- id_69622334 -->
<g id="node8" class="node">
<title>id_69622334</title>
<ellipse fill="none" stroke="black" cx="256.01" cy="-48.08" rx="45.92" ry="37.45"/>
<text text-anchor="middle" x="256.01" y="-59.38" font-family="Times,serif" font-size="14.00">Constant</text>
<text text-anchor="middle" x="256.01" y="-44.38" font-family="Times,serif" font-size="14.00">ir</text>
<text text-anchor="middle" x="256.01" y="-29.38" font-family="Times,serif" font-size="14.00">0</text>
</g>
<!-- id_439366130&#45;&gt;id_69622334 -->
<g id="edge5" class="edge">
<title>id_439366130&#45;&gt;id_69622334</title>
<path fill="none" stroke="black" d="M256.01,-147.05C256.01,-132.35 256.01,-113.52 256.01,-96.31"/>
<polygon fill="black" stroke="black" points="259.51,-95.85 256.01,-85.85 252.51,-95.85 259.51,-95.85"/>
<text text-anchor="middle" x="271.51" y="-117.97" font-family="Times,serif" font-size="14.00">phase</text>
</g>
<!-- id_443577022 -->
<g id="node9" class="node">
<title>id_443577022</title>
<ellipse fill="none" stroke="black" cx="366.01" cy="-48.08" rx="45.92" ry="37.45"/>
<text text-anchor="middle" x="366.01" y="-59.38" font-family="Times,serif" font-size="14.00">Constant</text>
<text text-anchor="middle" x="366.01" y="-44.38" font-family="Times,serif" font-size="14.00">ir</text>
<text text-anchor="middle" x="366.01" y="-29.38" font-family="Times,serif" font-size="14.00">0</text>
</g>
<!-- id_439366130&#45;&gt;id_443577022 -->
<g id="edge6" class="edge">
<title>id_439366130&#45;&gt;id_443577022</title>
<path fill="none" stroke="black" d="M275.93,-150.59C291.81,-132.69 314.39,-107.25 332.97,-86.32"/>
<polygon fill="black" stroke="black" points="335.59,-88.63 339.61,-78.83 330.36,-83.99 335.59,-88.63"/>
<text text-anchor="middle" x="318.01" y="-117.97" font-family="Times,serif" font-size="14.00">add</text>
</g>
<!-- id_572993188 -->
<g id="node11" class="node">
<title>id_572993188</title>
<ellipse fill="none" stroke="black" cx="476.01" cy="-48.08" rx="45.92" ry="37.45"/>
<text text-anchor="middle" x="476.01" y="-59.38" font-family="Times,serif" font-size="14.00">Constant</text>
<text text-anchor="middle" x="476.01" y="-44.38" font-family="Times,serif" font-size="14.00">ir</text>
<text text-anchor="middle" x="476.01" y="-29.38" font-family="Times,serif" font-size="14.00">0</text>
</g>
<!-- id_873170700&#45;&gt;id_572993188 -->
<g id="edge8" class="edge">
<title>id_873170700&#45;&gt;id_572993188</title>
<path fill="none" stroke="black" d="M659.71,-162.37C627.98,-148.99 573.61,-124.33 531.01,-96.17 525.24,-92.35 519.4,-87.99 513.79,-83.51"/>
<polygon fill="black" stroke="black" points="515.72,-80.56 505.78,-76.89 511.26,-85.96 515.72,-80.56"/>
<text text-anchor="middle" x="595.01" y="-117.97" font-family="Times,serif" font-size="14.00">add</text>
</g>
<!-- id_948895968 -->
<g id="node12" class="node">
<title>id_948895968</title>
<ellipse fill="none" stroke="black" cx="581.01" cy="-48.08" rx="41.02" ry="48.17"/>
<text text-anchor="middle" x="581.01" y="-66.88" font-family="Times,serif" font-size="14.00">Control</text>
<text text-anchor="middle" x="581.01" y="-51.88" font-family="Times,serif" font-size="14.00">kr</text>
<text text-anchor="middle" x="581.01" y="-36.88" font-family="Times,serif" font-size="14.00">amp</text>
<text text-anchor="middle" x="581.01" y="-21.88" font-family="Times,serif" font-size="14.00">0.9</text>
</g>
<!-- id_873170700&#45;&gt;id_948895968 -->
<g id="edge9" class="edge">
<title>id_873170700&#45;&gt;id_948895968</title>
<path fill="none" stroke="black" d="M668.44,-152.29C654.25,-135.54 633.84,-111.45 616.31,-90.76"/>
<polygon fill="black" stroke="black" points="618.89,-88.38 609.75,-83.01 613.55,-92.9 618.89,-88.38"/>
<text text-anchor="middle" x="658.01" y="-117.97" font-family="Times,serif" font-size="14.00">start</text>
</g>
<!-- id_652862698 -->
<g id="node13" class="node">
<title>id_652862698</title>
<ellipse fill="none" stroke="black" cx="686.01" cy="-48.08" rx="45.92" ry="37.45"/>
<text text-anchor="middle" x="686.01" y="-59.38" font-family="Times,serif" font-size="14.00">Constant</text>
<text text-anchor="middle" x="686.01" y="-44.38" font-family="Times,serif" font-size="14.00">ir</text>
<text text-anchor="middle" x="686.01" y="-29.38" font-family="Times,serif" font-size="14.00">0</text>
</g>
<!-- id_873170700&#45;&gt;id_652862698 -->
<g id="edge10" class="edge">
<title>id_873170700&#45;&gt;id_652862698</title>
<path fill="none" stroke="black" d="M686.01,-147.05C686.01,-132.35 686.01,-113.52 686.01,-96.31"/>
<polygon fill="black" stroke="black" points="689.51,-95.85 686.01,-85.85 682.51,-95.85 689.51,-95.85"/>
<text text-anchor="middle" x="696.01" y="-117.97" font-family="Times,serif" font-size="14.00">end</text>
</g>
<!-- id_705647645 -->
<g id="node14" class="node">
<title>id_705647645</title>
<ellipse fill="none" stroke="black" cx="791.01" cy="-48.08" rx="41.02" ry="48.17"/>
<text text-anchor="middle" x="791.01" y="-66.88" font-family="Times,serif" font-size="14.00">Control</text>
<text text-anchor="middle" x="791.01" y="-51.88" font-family="Times,serif" font-size="14.00">kr</text>
<text text-anchor="middle" x="791.01" y="-36.88" font-family="Times,serif" font-size="14.00">sustain</text>
<text text-anchor="middle" x="791.01" y="-21.88" font-family="Times,serif" font-size="14.00">1</text>
</g>
<!-- id_873170700&#45;&gt;id_705647645 -->
<g id="edge11" class="edge">
<title>id_873170700&#45;&gt;id_705647645</title>
<path fill="none" stroke="black" d="M703.59,-152.29C717.77,-135.54 738.18,-111.45 755.71,-90.76"/>
<polygon fill="black" stroke="black" points="758.48,-92.9 762.27,-83.01 753.14,-88.38 758.48,-92.9"/>
<text text-anchor="middle" x="745.51" y="-117.97" font-family="Times,serif" font-size="14.00">dur</text>
</g>
<!-- id_340603308 -->
<g id="node15" class="node">
<title>id_340603308</title>
<ellipse fill="none" stroke="black" cx="896.01" cy="-48.08" rx="45.92" ry="37.45"/>
<text text-anchor="middle" x="896.01" y="-59.38" font-family="Times,serif" font-size="14.00">Constant</text>
<text text-anchor="middle" x="896.01" y="-44.38" font-family="Times,serif" font-size="14.00">ir</text>
<text text-anchor="middle" x="896.01" y="-29.38" font-family="Times,serif" font-size="14.00">1</text>
</g>
<!-- id_873170700&#45;&gt;id_340603308 -->
<g id="edge12" class="edge">
<title>id_873170700&#45;&gt;id_340603308</title>
<path fill="none" stroke="black" d="M712.32,-162.37C744.04,-148.99 798.42,-124.33 841.01,-96.17 846.79,-92.35 852.63,-87.99 858.23,-83.51"/>
<polygon fill="black" stroke="black" points="860.76,-85.96 866.24,-76.89 856.3,-80.56 860.76,-85.96"/>
<text text-anchor="middle" x="820.01" y="-117.97" font-family="Times,serif" font-size="14.00">mul</text>
</g>
<!-- id_552198173 -->
<g id="node16" class="node">
<title>id_552198173</title>
<ellipse fill="none" stroke="black" cx="1006.01" cy="-48.08" rx="45.92" ry="37.45"/>
<text text-anchor="middle" x="1006.01" y="-59.38" font-family="Times,serif" font-size="14.00">Constant</text>
<text text-anchor="middle" x="1006.01" y="-44.38" font-family="Times,serif" font-size="14.00">ir</text>
<text text-anchor="middle" x="1006.01" y="-29.38" font-family="Times,serif" font-size="14.00">2</text>
</g>
<!-- id_873170700&#45;&gt;id_552198173 -->
<g id="edge13" class="edge">
<title>id_873170700&#45;&gt;id_552198173</title>
<path fill="none" stroke="black" d="M714.6,-168.84C764.87,-160.58 871.35,-139.19 951.01,-96.17 957.4,-92.72 963.7,-88.43 969.64,-83.85"/>
<polygon fill="black" stroke="black" points="971.92,-86.51 977.47,-77.49 967.5,-81.08 971.92,-86.51"/>
<text text-anchor="middle" x="943.01" y="-117.97" font-family="Times,serif" font-size="14.00">doneAction</text>
</g>
</g>
</svg>
